<svg id="Layer_1" data-name="Layer 1" xmlns="http://www.w3.org/2000/svg" viewBox="0 0 778.137 881.859"><defs><style>.cls-1{fill:#fff;}</style></defs><path class="cls-1" d="M542.087,612.66c.034,5.331,3.374,9.466,7.553,9.355,4.611-.123,7.657-3.339,7.628-8.055-.031-5.035-3.522-8.988-8.016-9.079C545.015,604.8,542.057,608.008,542.087,612.66Z"/><path class="cls-1" d="M207.782,440.845c.2-.169.174-.612.272-1-2.058-4.469-5.9-5.114-10.046-4.058a69.466,69.466,0,0,0-17.958,7.355,12.945,12.945,0,0,0-6.047,7.6c-8.971,28.392-16.541,57.155-22.99,86.215-2.069,9.325-5.633,18.239-7.434,27.733-.935-9.349-2.939-18.442-4.01-27.643-2.523-21.684-7.5-42.928-11.047-64.425-1.083-6.568-3.793-10.655-11.048-13.372-24.4-9.138-49.876,1.772-63.495,18.189-12.7,15.311-14.209,32.761-5.323,47.605,5.767,9.633,22.241,11.566,30.12,5.416,2.916-2.276,4.223-4.872,3.663-8.615-.544-3.636-3.206-4.174-6-4.954-7.158-2-10.593-6.192-11.244-13.446-1.3-14.553,9.532-29.055,24.554-32.789,5.975-1.485,12.086-2.007,19.64-2.667-4.175,4.073-5.215,8.2-5.811,12.513a95.618,95.618,0,0,1-3.7,16.53c-7.631,23.431-12.226,47.656-18.757,71.376-6.3,22.888-11.082,46.36-26.477,65.577a11.828,11.828,0,0,0-1.788,3.549C49.814,646.394,55.177,653.08,64.467,652a34.563,34.563,0,0,0,14.006-4.993c3.978-2.413,6.8-5.526,7.746-10.417,1.067-5.54,3.11-10.89,4.232-16.423,7.206-35.547,16.929-70.564,22.794-106.148a8.746,8.746,0,0,1,.533,1.953c1.014,13.618,3.774,27,5.329,40.553,2.108,18.352,4.867,36.6,9.982,54.4,2.445,8.511,6.322,11.328,15.244,11.254a70.961,70.961,0,0,0,7.456-.592c4.35-.5,7.134-2.351,6.642-7.384-.173-1.774.383-3.624.634-5.436,2.12-15.361,6.946-30.127,9.954-45.3,5.108-25.762,11.362-51.279,17.833-76.725C191.043,470.264,193.488,452.805,207.782,440.845Z"/><path class="cls-1" d="M497.491,677.9c-2.647-10.237-4.028-20.589-3.154-31.135a353.2,353.2,0,0,1,5.275-38.537c1.193-6.11,3.019-12.2,2.477-18.52-4.31-1.436-6.088.259-6.779,4.172-1.619,9.172-3.52,18.294-5.169,27.461-3.016,16.768-4.99,33.594-2.094,50.611,2.322,13.648,6.617,26.788,10.293,40.091,5.591,20.227,8.27,40.784,5.466,61.732-3.027,22.612-15.456,37.688-37.2,44.856-5.21,1.717-10.5,3.238-15.828,4.546-33.409,8.207-67.176,9.3-101.156,4.566-16.317-2.272-32.74-4.413-47.873-11.546-16.933-7.98-28.407-20.622-32.067-39.4a96.076,96.076,0,0,1-1.537-28.326c1.351-13.1,3.5-26.061,7.486-38.644,3.325-10.487,5.634-21.222,8.024-31.938.463-2.072.968-4.218-.034-6.657-5.139.386-5.439.584-6.587,4.715-1.559,5.609-3.059,11.234-4.61,16.845-4.166,15.064-8.837,29.978-10.985,45.56-2.373,17.22-2.333,34.114,3.483,50.767,3.47,9.937,9.075,18.158,17.823,23.978a106.966,106.966,0,0,0,33.695,14.8c32.312,7.95,64.957,12.547,98.419,8.33,22.235-2.8,44.018-6.979,64.708-15.878,19.25-8.279,29.345-23.647,32.362-43.618a146.761,146.761,0,0,0-1.633-51.651C507.008,709.1,501.572,693.681,497.491,677.9Z"/><path class="cls-1" d="M348.893,642.312a3.141,3.141,0,0,0-1.15,2.453c-.588,17-3.233,33.772-5.737,50.54-2.739,18.346-4.855,36.625-1.19,55.085.943,4.748,1.849,9.573,4.108,13.824,4.47,8.411,6.11,9.591,13.71,7.823a52.811,52.811,0,0,1,10.246-1.215c-2.534-.239-5.03-.217-7.526-.245-2.824-.032-5.652-.024-8.466-.216-.918-.062-2.082-.6-1.581-1.908.158-.413,1.122-.518,1.992-.877-1.479-.521-3.789.456-4.132-2.441h28c-8.783-.912-17.531-2-26.351-1.81-1.678.037-3.713.524-4.082-2.746,10.259-.595,20.376.05,30.33-1.753-9.114-.354-18.22-.357-27.326-.351-1.675,0-3.688.745-4.453-2.858h32.846q0-.777-.011-1.555-8.451,0-16.9,0c-14.313-.01-14.313-.011-17.313-3.19h35.007l-.04-2.272H344.393l.035-2.065h33.561c0-.362-.007-.725-.01-1.087-11.491-.137-22.91-1.59-34.429-1.767,13.1-1.81,26.243-.162,39.342-.8-12.869-.69-25.667-2.343-38.619-1.762q.019-.851.038-1.7h41.636l-.013-.852-41.744-1.371,0-1.091,35.091-1.9c-11.585-2.256-23.284-1.617-34.948-2.1,9.306-.866,18.49-2.092,27.633-3.861-5.454-1.534-11.112.473-16.5-1.451,8.747-.2,16.876-3.968,25.589-3.927-8.733-1.027-17.457,1.223-26.2-.185,10.2-2.95,20.858-2.926,31.249-4.649-8.428-1.448-16.833.718-25.27-.388,6.953-1.127,13.584-3.671,20.7-4.218-5.951-1.424-12.249.342-18-2.585l22.885-2.033c-9.092-.756-17.552-.022-25.818-1.942,10.166-.808,20.14-2.967,30.316-3.018-10.522-.961-21.117.726-31.661-1.443l25.77-2.623c-8.215-1.45-16.6.156-24.746-1.975a273.843,273.843,0,0,1,32.781-2.947c-11.437-1.167-22.984.377-34.336-2.156l32.419-1.832c-10.457-1.277-21.038.037-31.415-2.146,8.632-2.137,17.566-.912,27.109-2.981l-27.134-1.42.026-1.159,22.335-2.086c-9.123-1.059-18.265-.746-27.305-2.486l24.9-1.829c-.007-.295-.014-.589-.02-.884l-27.486-1.619c0-.321,0-.642,0-.963L380.7,671.88q0-.788,0-1.576H351.32l-.05-1.735,31.2-1.465q0-.674.01-1.347H351.009l.026-1.658c11.012-.694,22.113-.4,33.031-2.242-10.912-1.036-21.847-.517-33.452-.607,1.188-2.5-.865-4.62.961-6.729,7.2-.256,14.5.123,21.668-1.532a131.517,131.517,0,0,0-22.566-.05C350,648.911,349.447,645.611,348.893,642.312Z"/><path class="cls-1" d="M461.757,785.49c8.7,2.716,17.412,3.213,24.249,8.952,1.714,1.438,3.126-.1,4.233-1.342,3.187-3.563,4.869-7.913,6.136-12.421,3.844-13.675,4.2-27.532,2.3-41.556-2.225-16.4-7.8-31.966-11.605-47.968-3.51-14.741-6.781-29.541-5.108-44.894,1.28-11.745,2.725-23.464,4.6-35.134.968-6.02,1.877-12.1,1.489-18.439-4.041.359-4.192,3.129-4.453,5.769-.509,5.13-1.282,10.032-8.174,10.063.966,1.743,2.93.207,3.535,1.789-.512,1.778-2.919.129-3.41,1.828.772,1.145,2.98-.169,2.983,1.94-.8,1.056-2.457.062-3.09,1.478.414,1.406,2.917.251,2.916,2.605,0,3.779-4.3.884-4.988,3.686,2.1.757,4.868,0,5.309,3.786.718,6.175-3.408,6.656-7.956,7.094,2.148,2.5,4.923.261,6.815,2.1-2,1.541-4.818-.167-6.527,2.015,1.529,1.969,4.411-.281,6.03,1.757-2.056,1.3-4.57-.147-6.373,1.816,1.772,1.931,4.315.229,6.105,1.664-1.85,1.934-5.19,1.006-6.263,3.88,1.655,1.626,4.37-.063,5.991,1.869-1.49,2.479-4.876.128-6.421,2.484,1.862,1.667,4.427.161,6.2,1.778-1.7,2.36-5.186-.15-6.461,2.666,2,1.769,5.079-.429,6.9,2.036-1.575,2.388-5.2.158-6.267,3.046,1.789,1.511,4.716-.284,6.154,2.084-1.588,1.846-3.891.4-5.235,1.909,1.548,1.732,4.42-.448,5.806,2.029-1.463,1.671-4.172.183-5.663,2.03,1.925,1.221,4.206-.2,5.925,1.415-1.047,1.808-3.307.225-4.251,1.72,1.111,2.042,4.165.069,5.014,2.684-1.289,1.325-3.3-.054-4.744,1.357,1.948,1.716,6.732.381,5.755,5.314-1.253,1-3.646-1.119-4.628,1.333,1.515,1.93,5.791-.386,5.875,3.8-1.425,1.093-3.632-.621-4.9,1.109,1.815,2.01,5.464-.412,6.276,3.142-1.622,1.67-4.5-.343-5.711,2.1,2.092,1.385,4.792-.389,6.574,1.527-.958,2.343-4.157-.31-4.737,2.428,1.552,1.156,3.755-.208,5.1,1.469-1.217,1.78-3.378.063-4.566,1.553,1.414,1.749,3.98-.145,5.333,1.664-.245,1.645-2.462.066-2.8,1.6,1.2.874,2.765-.347,3.757.908-.175,1.762-2.042.727-2.692,1.716.88,1.262,3.026-.348,3.648,1.571-.661,1.875-2.918.095-3.732,1.616,1.237,1.313,3.824-.314,4.566,1.951-.351,1.559-2.664.392-2.807,1.822.925,1.351,2.5-.178,3.16,1.275-.576,1.126-2.456-.448-2.7,1.25.874,1.919,3.775.438,4.349,2.643-.632,1.826-3.078-.347-3.532,1.687,1.091,1.894,4.645-.293,4.915,2.943-1.492,1.217-3.483-.12-4.891,1.4,1.582,1.713,4.741.115,5.948,2.5-1.409,1.974-4.088-.225-5.263,1.868,1.513,2.3,6.269-.768,6.232,3.772-1.717,1.656-4.511-1.069-5.754,1.767,2.067,1.214,4.5.092,6.381,1.449.116,1.205.232,2.407.356,3.687-1.9.441-3.979-.386-6.087.764,1.974,1.358,4.693.386,6.338,2.295-1.969,1.585-4.5.045-6.167,1.8,1.724,1.421,4.012-.03,5.642,1.366-.7,1.562-2.662.246-3.373,1.605,1.035,1.5,3.6-.352,4.487,1.806-1.784,1.139-4.1-.242-5.572,1.461,1.548,2.031,4.041.394,5.722,2.21l-6.555,3.124c1.834,1.814,4.687.824,6.269,2.822-2.341,1.259-5.019-.2-7.1,2.219l4.866,1.255c-1,.9-2.673-.163-3.3,1.059,1.05,2.127,4.417.5,5.072,3.691-2.657,1.129-5.681-.287-8.243,1.391,2.065,2.222,5.773.709,7.59,3.772-3.211,1.727-6.917-.268-10.066,1.682,2.68,2.1,6.25.5,8.724,3.471-3.933.407-7.329.584-11.034,1.89,3.024,2.294,6.793,1.371,10.055,4.123l-12.529.71c3.317,2.666,7.148,1.21,10.958,4.047C479.142,790.221,470.93,784.386,461.757,785.49Z"/><path class="cls-1" d="M304.472,713.105,292.5,714.67c3.649,1.947,7.8-.4,11.521,2.575-4.017,1.682-7.989.558-11.869,2.286,4.169,1.434,8.329-.3,12.416,2.488l-11.36,1.654c3.455,1.447,6.618.676,9.692,2.32-2.729,2.212-6.314.436-9.014,2.573,3.423,1.24,6.859.344,10.334,2.551l-12.28,1.474.022.606,11.968,1.535q-.01.51-.022,1.018l-13.65,1.906c21.979,2.305,21.979,2.305,23.806-.7-.984-1.741-3.13-.384-5-2.17,5.157,1,6.074-1.589,6.35-5.4,1.066-14.729,3.514-29.288,5.567-43.9.694-4.935,1.766-10.083-.028-15.182-4.582-.277-8.747.866-12.982,1.554,2.714,1.045,5.8.023,9.078,2.083l-8.521,2.052c3.458,1.168,6.378.353,9.151,2.038l-15.042,2.378c3.627,1.643,7.652.521,11.781,2.159-4.1,2.49-8.416,1.17-12.745,3.079,3.8,1.438,7.355-.016,10.824,2.149-3.968,1.582-7.941.371-11.881,2.24,3.751,1.805,7.619.1,11.122,2.148-3.582,2.085-7.5.217-10.928,2.448,3.329,1.287,6.483.224,10.064,1.847-3.089,1.851-6.055.4-8.625,1.467,1.507,2.834,4.621,1.892,7,3-2.065,1.7-4.8.347-6.184,2.454,1.128,1.5,3.186.24,4.079,1.645-3.818,1.927-7.9-1.268-12.424.572l11.494,3.089c-4.752,1.361-8.942.335-13.215,1.881C296.664,712.41,300.53,710.435,304.472,713.105Z"/><path class="cls-1" d="M390.958,425.063c-11.925-2.13-23.958-1.03-34.714-2.866,10.2-1.246,21.569-1.472,32.943-2.352l-27.59-1.888c7.244-2.924,14.762-1.882,22.12-3.122-2.138-1.3-4.451-1.335-6.735-1.334a83.7,83.7,0,0,1-14.407-1.266,26.627,26.627,0,0,0-13.722,1.266c-2.436.855-3.56,1.9-3.54,4.524.054,6.987.038,13.979-.186,20.961-.113,3.544,1.477,4.372,4.579,3.8a13.475,13.475,0,0,1,6.424.341c3.747,1.139,7.513,2.864,11.027-.583.388-.38.64-.695.359-1.223-1.018-1.033-2.785.369-3.956-1.049,2.614-.628,5.192.46,7.814-1.185-2.378-1.333-4.95-.273-6.925-1.506,3.8-.771,7.73.333,11.278-2.093h-15.1l-.012-.777,15.183-1.245q-.007-.452-.016-.9H362.056c7.046-.354,13.912-1.749,20.832-2.98H363.007l0-.97h15.113l.006-.765-14.048-1.289.025-1.5Z"/><path class="cls-1" d="M445.777,613.286c.513-2.784,1.122-5.711.167-8.6-2.93.411-2.924,2.431-3.3,4.163-6.271,29.292-8.966,58.667-4.412,88.6,2.56,16.831,6.287,33.693,3.63,51.014-1.3,8.5-2.435,17-5.726,25.873,2.38-1.4,3.053-3.095,3.853-4.616a67.053,67.053,0,0,0,7.787-36.573c-.7-9.77-1.882-19.52-3.235-29.225-2.5-17.942-5.874-35.829-3.417-54.05C442.772,637.69,443.544,625.4,445.777,613.286Z"/><path class="cls-1" d="M413.936,521.818h0l.009-.01.159-.179c-1.163,3.335-1.914,6.742-1.195,10.268,1.119,5.491,4.219,9.217,9.728,10.9s9.331-.9,12.7-4.693c2.653-2.985,3.485-6.759,4.1-10.553.748-4.6-.314-8.589-4.3-11.45-4.107-2.945-8.427-3.643-13.151-1.506-3.457,1.563-5.722,4.369-8.018,7.179l-.033.036v0Z"/><path class="cls-1" d="M326.939,750.29c1.154,7.205,3.583,13.888,8.443,19.538-.794-5.1-2.406-9.931-3.289-14.956-2.983-16.962-1.913-33.76,1.588-50.494a174.678,174.678,0,0,0,3.586-38.118c-.086-6.837-3.091-12.739-5.284-18.994,2.67,19.28.091,38.1-3.546,56.926C325.5,719.427,324.464,734.834,326.939,750.29Z"/><path class="cls-1" d="M290.98,671.9a220.544,220.544,0,0,1-7.553,30.47c-4.011,12.36-6.678,25.017-9.038,37.785-2.715,14.689-.276,28.779,3.807,42.771a30.446,30.446,0,0,0,6.087,10.8c1.7,2.046,3.587,2.738,5.83.654-7.2-9.141-9.58-14.833-11.853-28.175-2.931-17.214.918-33.756,5.269-50.176,3.49-13.168,7.51-26.2,9.951-39.624.608-3.341,1.285-6.822-.6-10.346C291.241,667.939,291.308,670.011,290.98,671.9Z"/><path class="cls-1" d="M267.619,462.126c2.815-.652,2.231-2.766,2-4.776-1.281-11.032-3.11-22-3.352-33.149-.167-7.689,2.329-11.15,9.911-12.871,2.472-.561,5.419-.253,7.792-4.073-5.461.188-9.987-.255-14.243-2.179-1.044-.472-2.285.189-3.214.961-4.458,3.7-7.914,7.753-7.8,14.2a150.256,150.256,0,0,0,5.349,38.31C264.579,460.407,264.581,462.831,267.619,462.126Z"/><path class="cls-1" d="M342.443,272.6c.025-.019.043-.042.069-.06-.01-.052-.009-.1-.018-.155-.009.022-.016.045-.025.067C342.458,272.5,342.453,272.552,342.443,272.6Z"/><path class="cls-1" d="M339.979,278.778a157.832,157.832,0,0,1-4.01,24.038,35.777,35.777,0,0,0-1.07,11.865c.143,1.905,1.1,3.2,2.974,3.432,1.789.222,1.956-1.379,2.39-2.614,1.2-3.411,2.824-6.351,6.015-8.554,3.357-2.319,5.877-5.63,4.747-10.157-.426-1.708.872-2.325,1.316-3.447-7.747-4.849-11.776-11.4-9.9-20.739C340.39,274.158,340.216,276.554,339.979,278.778Z"/><path class="cls-1" d="M449.088,401.788c-26.246-2.177-52.176-2.559-78.1-2.827-9.146-.1-18.3.35-27.446.708-2.463.1-5.2-.054-7.449,2.274,1.635,1.413,3.147,1.212,4.562,1.215,11.486.025,22.959-.378,34.439-.723,22.8-.686,45.59-.267,68.214,3C446.517,405.9,447.956,404.968,449.088,401.788Z"/><path class="cls-1" d="M270.681,403.316c5.133-.145,10.27-.4,15.381-.868,1.426-.132,3.255-.514,3.832-2.823-3.825-1.307-7.667-.83-11.406-1.129-5.788-.463-6.241-.827-6.315-6.444a161.743,161.743,0,0,1,.66-17.89c.365-3.728,1.188-7.5.166-12.067-3.546,1.867-4.031,4.664-4.378,7.39-1.259,9.885-1.478,19.835-1.739,29.783C266.809,402.044,268.121,403.388,270.681,403.316Z"/><path class="cls-1" d="M434.2,708.651a339.294,339.294,0,0,1-2.263-96.142C424.3,635.119,425.669,687.519,434.2,708.651Z"/><path class="cls-1" d="M332.485,384.921l.036-1.186h-10.8c6.092-.608,11.921-2.177,18.057-3.5-7.762-3.322-45.459-3.851-53.936-.8,15.381.93,30.576.442,45.779,1.1l-49.04,2.045C299.226,384.351,315.873,383.745,332.485,384.921Z"/><path class="cls-1" d="M413,407.939c-19.593-.766-39.175-.794-58.757-.735-2.945.008-5.862.515-8.258,2.844C368.463,412.073,390.637,407.428,413,407.939Z"/><path class="cls-1" d="M341.44,388.335c-13.541-3.348-49.914-2.946-55.805-.267C304.344,388.51,322.864,388.977,341.44,388.335Z"/><path class="cls-1" d="M286.047,375.545c17.224.58,34.456,1.363,51.538-1.6q-.027-.711-.052-1.42l-51.524,1.61Q286.029,374.84,286.047,375.545Z"/><path class="cls-1" d="M503.018,500.938c1.677-14.712,3.755-29.411,1.71-44.239C503.153,471.414,501.889,486.138,503.018,500.938Z"/><path class="cls-1" d="M472.28,367.278c-6.643,7.569-11.782,16.229-16.676,25.155,7.7-8.818,14.242-18.709,24.886-25.776C476.583,364.975,473.79,365.557,472.28,367.278Z"/><path class="cls-1" d="M336.4,370.147l-.061-1.792-48.395,2.725C304.162,372.591,320.293,371.668,336.4,370.147Z"/><path class="cls-1" d="M342.282,441.568c.046-7.927.019-15.853.019-23.78-2.443,8.531-3.417,17.358-4.021,26.171C341.246,444.634,342.271,443.6,342.282,441.568Z"/><path class="cls-1" d="M279.242,420.166c.731-.189,1.018-1.275.657-2.153a2.254,2.254,0,0,0-1.928-1.331c-3.453-.548-7.967,3.16-7.657,6.621.452,5.053,1.239,10.076,2.027,16.232,1.471-2.742,1.174-4.426,1.254-6.049C273.848,428.36,271.482,422.167,279.242,420.166Z"/><path class="cls-1" d="M292.05,742.684c7.338.533,14.673,1.331,22.023-.454C306.645,738.547,299.381,741.538,292.05,742.684Z"/><path class="cls-1" d="M344.05,261.3c-.605,3.667-2.2,7.237-1.556,11.083,4.569-11.481,4.968-23.758,6.886-35.751C347.24,244.786,345.419,253.008,344.05,261.3Z"/><path class="cls-1" d="M321.7,784.124c-10.472-.007-20.59,2.406-30.674,4.535C301.428,788.013,311.7,786.942,321.7,784.124Z"/><path class="cls-1" d="M293.161,750.712c7.187.579,14.368,1.831,21.5-.042A66.236,66.236,0,0,0,293.161,750.712Z"/><path class="cls-1" d="M315.5,759.165c-8.719-1.252-17.484-.9-26.251-.523C297.975,759.48,306.683,761.088,315.5,759.165Z"/><path class="cls-1" d="M293.066,763.594a86.454,86.454,0,0,0,22.821-.205C308.265,762.266,300.661,762.7,293.066,763.594Z"/><path class="cls-1" d="M293.042,746.789c7.018.589,14.033.982,21.008-.408C306.981,744.435,300,745.228,293.042,746.789Z"/><path class="cls-1" d="M380.109,658.426,380.1,657.3c-8.959-.021-17.937-1.069-26.844,1.128Z"/><path class="cls-1" d="M294.015,754.613c6.748,1.134,13.494,2.3,20.368.252A81.365,81.365,0,0,0,294.015,754.613Z"/><path class="cls-1" d="M313.9,767.222a175.958,175.958,0,0,0-21.68.549c7.275.4,14.56,1,21.848.214C314.53,767.935,314.525,767.594,313.9,767.222Z"/><path class="cls-1" d="M311.171,667.931c3.258.527,6.395,2.568,9.825.336C317.769,666.547,314.469,667.335,311.171,667.931Z"/><path class="cls-1" d="M306.892,390.1c-3.841-.593-7.571.129-11.289.988C299.455,391.8,303.257,391.929,306.892,390.1Z"/><path class="cls-1" d="M354.769,648.873A55.192,55.192,0,0,0,369,648.82C364.291,647.629,359.562,648.115,354.769,648.873Z"/><path class="cls-1" d="M244.587,288.2c.149-4.755-4.2-10.042-8.371-10.188a8.766,8.766,0,0,0-8.771,8.279c-.053,5.295,3.019,9.1,7.571,9.369C239.742,295.948,244.46,292.27,244.587,288.2Z"/><path class="cls-1" d="M205.85,339.372c-4.2.072-7.79,3.5-7.813,7.464-.027,4.647,2.806,7.8,7.061,7.851,5.765.074,9.771-2.771,9.791-6.954C214.908,343.825,210.016,339.3,205.85,339.372Z"/><path class="cls-1" d="M217.549,316.881c-2.478.026-5.158,1.013-5.72,3.626-.451,2.094,1.852,2.218,3.806,2.391,1.974-.624,5.078-.356,5.686-3.206C221.821,317.346,219.2,316.863,217.549,316.881Z"/><path class="cls-1" d="M551.69,301.7c-4.233.113-7.768,2.858-7.786,6.046-.027,4.783,2.439,7.973,6.117,7.91,6.169-.106,10.123-2.877,10.2-7.149C560.278,305.3,555.635,301.6,551.69,301.7Z"/><path class="cls-1" d="M536.011,284.1c-3.884-.165-4.445,3.036-5.095,6.125-.009,2.089.729,3.692,3.323,3.782,3.287.115,6.365-2.535,6.5-5.427C540.911,285.162,538.534,284.209,536.011,284.1Z"/><path class="cls-1" d="M192.739,496.621a32.308,32.308,0,0,1-.659,13.142c-2.948,11.436-5.343,22.992-7.656,34.57-2.6,13.013-6.814,25.745-6.47,39.254.226,8.9,4.41,15.643,12.3,18.982,7.556,3.2,14.586.541,20.5-5.165,4.169-4.023,7.218-8.966,11.143-13.4a13.832,13.832,0,0,1,1.09,1.393c5.384,9.479,9.867,10.844,19.559,5.984,6.569-3.294,12.752-7.033,16.227-15.383,1.4,3.964-1.158,6.707,1.039,9.271,6.806-.02,13.3-1.844,19.668-4.325,2.024-.789,2.594-2.4,2.8-4.317,1.6-15.111,6.544-29.524,9.308-44.394a28.684,28.684,0,0,1,1.627-5.724c.787-1.9,2.219-3.646,4.434-3.477,2.519.191,2.79,2.6,3.085,4.527a148.324,148.324,0,0,1,1.36,17.91c.22,6.931,1.685,13.507,5.8,19.3,4.341,6.117,10.216,8.307,17.428,6.414,8.128-2.134,14.236-7,18.869-13.868,1.445-2.141,2.812-4.333,4.318-6.661.962.833,1.579,1.38,2.209,1.91,10.787,9.084,21.941,10.037,34.029,2.622,9.939-6.1,17.843-14.348,24.429-23.919,2.025-2.942,2.255-6.78,4.767-9.456-.141-3.1,2.754-6.147.3-9.611-2.852.628-3.742,2.953-5.052,4.752-5.634,7.736-11.665,15.01-20.961,18.617-11.089,4.3-20.795-1.422-20.857-15.719a2.416,2.416,0,0,1,2.346-2.659c12.612-2.019,22.064-9.512,31.25-17.654a49.036,49.036,0,0,0,16.444-28.948c1.729-10.163-3.773-21.909-18.128-22.361-6.822-.216-12.759,2.1-18.208,5.812-26.418,18.015-38.372,43.581-37.6,74.992.176,7.216-1.694,12.536-6,17.594-1.728,2.029-3.65,4.277-6.675,3.55-2.88-.693-3.179-3.558-3.848-5.929a32.116,32.116,0,0,1-.957-4.384c-1.563-11.523-2.866-23.121-11.038-32.784,14.849-9.8,24.524-23.807,36.168-35.867a17.894,17.894,0,0,0,4.472-6.56c.834-2.509.048-4.642-2.838-4.488a82.256,82.256,0,0,0-19.2,2.872c-1.952.581-2.659,2.346-3.564,3.953-3.833,6.8-7.11,13.937-12.709,19.621a116.837,116.837,0,0,0-14.122,16.792c-.554.829-.992,2.145-2.714,1.615,1.152-6.462,1.959-12.907,3.481-19.178,5.059-20.851,10.406-41.633,15.569-62.459,1.2-4.835,2.42-9.7,1.307-14.777-.967-4.4-1.682-4.866-5.646-2.9-5.808,2.882-10.744,7.281-16.862,9.666-1.673.652-1.977,2.521-2.386,4.169-2.84,11.459-5.611,22.936-8.608,34.353-8.063,30.716-15.06,61.689-22,92.665-1.75,7.813-6.477,13.292-10.593,19.406a4.787,4.787,0,0,1-6.292,1.493c-2.293-1.129-1.683-3.284-1.247-5.284a626.5,626.5,0,0,1,16.188-61.216c2.243-6.871,3.634-14.02,5.536-21.522-9.648-.724-16.96,5.467-25.41,5.311-1.035,4.78-1.969,9-2.86,13.222-4.363,20.669-10.513,40.9-15.289,61.458A33.122,33.122,0,0,1,213.6,578.019c-4.977,4.083-9.222,2.2-10.072-4.244a37.312,37.312,0,0,1,1-13.385c3.477-14.9,6.2-29.977,10.525-44.689,1.638-5.574,2.626-11.343,3.837-17.038.78-3.664-.932-5.62-4.536-5.228C207.162,494.217,200.324,497,192.739,496.621Zm195.663-31.9a12.081,12.081,0,0,1,2.3-1.892c2.542-1.778,5.47-3.255,8.326-1.574,3.026,1.781,1.763,5.1,1.251,7.741-3.087,15.936-11.506,27.574-28.092,33.735A66.618,66.618,0,0,1,388.4,464.717Z"/><path class="cls-1" d="M697.156,498.508c-3.5,1.532-6.922,3.308-10.521,4.563a771.7,771.7,0,0,1-103.886,28.317c-32.783,6.5-65.763,12.024-98.681,17.839-29.814,5.268-59.47,11.242-88.96,18.127-45.838,10.7-91.683,21.3-135.527,38.915C238.069,614.908,217.237,624.9,198,637.918c-8.42,5.7-16.454,11.988-22.635,20.182-10.806,14.327-4.309,34.179,13.019,38.625,16.47,4.226,31.366.734,43.515-11.782a188.9,188.9,0,0,1,36.917-29.555c20.319-12.461,41.8-22.583,63.651-32.071,32.073-13.927,64.973-25.559,98.269-36.041,35.837-11.282,72.105-21.144,108.367-30.975,40.61-11.009,81.76-20.054,121.668-33.6,13.583-4.612,27-9.554,38.366-18.7,1.916-1.542,4.054-2.895,4.209-5.893C701.053,496.63,699.108,497.653,697.156,498.508Zm-51.387,25.914c2.315-2.729,5.617-2.5,8.686-2.983Z"/><path class="cls-1" d="M472.291,396.608q-36.382,46.2-31.418,104.907c1,11.945,6.534,21.6,15.492,29.2,7.745,6.564,16.758,9.443,26.971,6.86a64.987,64.987,0,0,0,35.909-22.932c3.171-3.982,6.228-8.056,9.362-12.121,1.806,1.3,2.054,3.034,2.752,4.48,5.857,12.143,18.737,16.848,31.041,11.377a50.005,50.005,0,0,0,19.841-16.353c10.659-14.449,17.748-30.818,21.96-48.2,2.3-9.5.1-18.9-5-27.361-6.29-10.451-15.984-14.333-27.759-11.157a45.125,45.125,0,0,0-23.3,14.685c-11.41,13.606-18.6,29.054-19.587,47.06-.208,3.8-.525,7.551-2.1,11.192-5.767,13.32-16.24,21.218-29.5,25.812-11.208,3.883-21.548-1.136-25.85-12.22a31.025,31.025,0,0,1-2.053-10.731,152.763,152.763,0,0,1,15.519-70.991c6.315-12.874,13.722-25.108,24.742-34.757,5.549-4.858,11.652-8.242,19.045-9.071,4.648-.522,7.874,1.078,8.811,5.42,2.172,10.065,1.026,19.547-6.548,27.377-4.508,4.661-13.059,6.167-17.492,1.265-.225-.248-.895-.093-1.341-.125-1.508,7.163,8.255,18.475,15.889,18.207,6.623-.232,12.75-2.083,17.782-6.807a44.736,44.736,0,0,0,12.221-19.165c5.508-17.191-4.825-34.818-22.024-37.534A46.224,46.224,0,0,0,513.5,367.06C496.735,372.7,483.131,382.844,472.291,396.608Zm92.062,43.424c1.807-3.147,3.616-6.382,6.677-8.595,2.835-2.051,4.873-2.071,7.544,1.007,5.054,5.825,6.91,12.309,6.405,19.826-.734,13.444-5.338,25.828-11.412,37.68-2.274,4.438-6.864,6.632-11.383,8.442-2.468.989-4.513-.064-6.231-1.92-3.473-3.751-4.6-8.337-4.8-13.267C550.484,467.266,556.675,453.406,564.353,440.032Z"/><path class="cls-1" d="M736.881,442.984c-2.382-1.158-4.827-1.4-6.924.683-1.584,1.57-2.2,3.7-3.043,5.683a20.569,20.569,0,0,1-7.993,9.951,4.068,4.068,0,0,1-4.7.071c-1.538-1.041-1.28-2.544-.98-4.05.649-3.261,1.212-6.541,1.946-9.783,3.673-16.218,7.5-32.4,11.04-48.65,1.5-6.9-.371-8.5-7.351-7.019-2.6.552-5.2,1.134-7.777,1.78a9.637,9.637,0,0,1-5.865-.334c-13.939-5.154-26-.862-35.431,9.215-15.87,16.962-25.21,36.985-24.188,60.925.353,8.273-4.823,13.894-10.313,19-2.774,2.583-5.914.993-6.193-2.911a49,49,0,0,1,.341-8.956c1-8.794,3.811-17.2,5.686-25.809,3.974-18.244,11.841-35.313,15.992-53.521,2.992-13.124,6.065-26.245,10.461-39.017,1.767-5.135-.951-8.906-5.579-8.583-9.351.655-19.533,8.246-22.239,17.271-4.582,15.286-9.041,30.619-13.082,46.055-4.123,15.752-7.023,31.8-11.88,47.4-2.916,9.366-3.5,19.3-3.71,29.135a32.325,32.325,0,0,0,1.971,12.257c3.5,9.156,14.709,14.07,22.459,9.257,8.509-5.285,13.585-13.649,18.122-22.331,1.024.7,1.269,2.284,2,3.556,5.881,10.285,16.142,13.019,26.352,7.017,6.713-3.947,10.654-10.27,14.58-17.236,7.938,14.02,17.108,15.377,28.364,4.764a30.292,30.292,0,0,0,3.445-3.606c6.259-8.26,10.763-17.558,15.571-26.67C739.022,446.51,739.569,444.29,736.881,442.984ZM701.13,408.366c-3.667,16.7-5.778,33.775-11.872,49.889a24.284,24.284,0,0,1-4.777,8.134,9.947,9.947,0,0,1-9.615,2.873c-3.355-.64-4.01-3.689-4.817-6.38a27.888,27.888,0,0,1-1.063-9.419c1.224-17.7,6.207-33.926,18.74-47.164,2.259-2.386,4.854-4.021,8.326-3.772C699.7,402.789,701.9,404.88,701.13,408.366Z"/><path class="cls-1" d="M293.442,801.679c-4.145,3.409-4.028,5.739.824,7.989a100.152,100.152,0,0,0,17.312,6.34,322.265,322.265,0,0,0,51.072,8.673c32.113,2.872,63.769.157,95.085-7.1a84.547,84.547,0,0,0,24.96-9.862c3.9-2.364,4-4.3.6-7.311-2.477-2.193-5.652-2.658-8.745-3.313a330.078,330.078,0,0,0-71.614-6.8c-19.877-.5-36-.328-52.095,1-16.065,1.323-32.229,1.815-47.907,6.169C299.542,798.4,296.214,799.4,293.442,801.679Zm119.5-6.019c17.627.748,35.2,1.745,52.631,4.582,4.9.8,9.845,1.33,15.1,4.274-5.2,3.623-10.352,5.38-15.582,6.927-30.011,8.876-60.765,11.075-91.844,9.881-25.357-.974-50.395-3.972-74.232-13.454-.895-.357-1.775-.752-3.158-1.34a43.927,43.927,0,0,1,17.567-6.3C346.441,795.412,379.616,794.246,412.942,795.66Z"/><path class="cls-1" d="M393.362,351.374c-.417-.747-1.13-1.609-1.914-1.312-4.764,1.806-9.341.235-14.027-1.171-2.343,8.627-7.121,15.439-11.133,22.639-.879,1.578-2.036,3.073-1.442,5.068,1.942,1.4,4.387,1.293,6.5,2.173.265.687.818.883,1.5,1.064,11.379,3.043,22.4,1.083,33.318-2.336l.451-.319c.015-.654.28-1.446.008-1.942C402.245,367.26,397.8,359.318,393.362,351.374Z"/><path class="cls-1" d="M385.141,387c27.281.77,48.067-22.811,47.774-48.976-.292-25.986-20.765-46.515-49.106-46.723-24.363-.179-45.829,25.388-45.288,47.64C339.193,366.629,358.807,387.246,385.141,387Zm14.089-89.543c11.445,3.954,19.6,10.966,25.919,20.567,5.218,7.928,5.111,16.948,3.755,26.019-2.017,13.5-9.087,24.022-19.133,32.823a17.91,17.91,0,0,1-3.444,2.018l-.54.26c-10.3,4.71-20.935,5.475-31.868,3.038-4.556-1.016-11.544-3.633-15.856-7.779-16.115-15.494-20.918-36.643-10.543-57.247C356.036,300.248,378.892,290.435,399.23,297.459Z"/><path class="cls-1" d="M432,164.219c-3.618-1.013-7.194-2.458-11.023-1.3A21.152,21.152,0,0,0,432,164.219Z"/><path class="cls-1" d="M418.961,816.359c-23.811-2.179-47.726-.07-71.6-1.84C371.147,819.105,395.043,816.95,418.961,816.359Z"/><path class="cls-1" d="M421.945,812.864a377.447,377.447,0,0,0-55.987.1A477.29,477.29,0,0,0,421.945,812.864Z"/><path class="cls-1" d="M414.918,804.475H378.782C390.825,805.637,402.872,804.909,414.918,804.475Z"/><path class="cls-1" d="M384.909,808.147H415.9A123.684,123.684,0,0,0,384.909,808.147Z"/><path class="cls-1" d="M368,809.8H386.86l0-.435H368Z"/><path class="cls-1" d="M378.291,806.959l-.206-.39H366.157l0,.39Z"/><path class="cls-1" d="M384.605,818.706c4.253.493,8.5.868,12.833-.014C393.2,818.2,388.9,817.739,384.605,818.706Z"/><path class="cls-1" d="M345.705,340.659c7,0,14.107-.053,21.209.024,3.312.035,5.434-.882,5.35-4.726-.045-2.062,1.25-3.736,2.49-5.309,4.483-5.69,4.483-5.68.457-11.78-2.011-3.047-3.9-6.179-6.012-9.152-1.8-2.537-3.392-5.335-6.315-6.805C348.333,312.345,342.813,330.484,345.705,340.659Z"/><path class="cls-1" d="M400.257,340.859c4.876-.27,9.821-.739,14.77-.778,12.993-.1,13.866-1.293,9.471-13.768-.056-.157-.1-.317-.163-.471a43.229,43.229,0,0,0-19.747-22.43,157.181,157.181,0,0,1-12.416,21.939c2.034,2.435,3.955,4.5,5.6,6.765C399.58,334.612,398.45,338.04,400.257,340.859Z"/><path class="cls-1" d="M385.672,347.649a8.548,8.548,0,0,0,8.654-8.346c.088-5-3.43-9.131-7.825-9.19-4.09-.054-9.279,4.369-9.494,8.094C376.769,342.337,381.567,347.565,385.672,347.649Z"/><path class="cls-1" d="M284.216,357.7c4.511.046,8.937.684,13.412.838,5.5.189,10.986.234,16.347-1.369,8.362-2.5,12.523-7.38,13.357-16.006.992-10.269,2.056-20.534,2.066-30.874a74.078,74.078,0,0,1,3.139-22.3,350.188,350.188,0,0,0,9.354-35.639c3.286-16.8,7.6-33.421,9.642-50.469.413-3.451,1-7.081,4.321-10.736,2.1,14.465-5.049,26.707-4.834,39.787,3.493-12.883,6.523-25.768,8.82-38.868,1.639,4.758,1.317,9.494.638,14.168-2.151,14.81-4.953,29.507-7.84,44.19-1.6,8.157-3.276,16.341-4.129,24.594-.794,7.683,7.274,13.142,14.274,10.182,10.251-4.335,20.942-5.013,31.855-3.95,1.955.191,3.909.4,5.863.6-12.781-3.238-25.781-1.679-38.672-2.277,6.978-2.061,14.059-2.832,22.475-3.093-6.768-1.74-12.571.082-18.062-1.765,6.784-2.759,14.094-1.246,21.011-2.828-6.805-1.532-13.8-.633-20.653-1.22q.013-.667.026-1.337l20.4-1.6c-.013-.319-.027-.637-.04-.956H366.823c4.927-2.906,10.569-.9,16.636-3.24-5.905-.95-10.87.209-15.7-1.721l13.918-1.174-.03-.958H370.41l.029-.889,14.71-1.085q-.009-.544-.017-1.091H369.915c4.932-2.385,10.314-.965,15.758-3.178-5.665-1.108-10.763.329-16.956-1.19,5.666-1.981,10.651-.951,16-2.92-5.1-1.6-9.351.3-13.854-.474,1.74-1.652,4.109-.053,5.307-2.248-1.712-1.205-3.983-.256-6.634-1.659l13.9-1.183c-3.809-1.5-7.834-.476-11.538-2.671l15.172-1.577c-4.653-1.074-9.438.05-14.015-2.22l14.041-1.707c-5.351-.862-10.8-.043-15.9-2.555l10.585-.487c-.011-.365-.022-.729-.032-1.094l-10.8-.735c1.793-1.664,4.077-.223,5.814-2.019l-6.013-1.191.075-.75h13.086c-4.174-1.112-8.555-.378-12.541-2.525l11.061-.588c-3.737-2.12-7.842-.9-11.654-2.588l10.195-1.4-.069-.5-9.224-.725.094-.957,13.972-.922c-5.121-1.085-9.6-.234-13.768-2.139l11.825-.75c-.014-.181-.027-.361-.041-.542L371.105,211.7l.021-.483,6.95-.5-.042-.69-3.269-.612,6.7-.813c-3.3-1.437-6.9-.035-10.624-2.334l11.841-.613c-4.011-1.894-7.42-1.255-10.558-2.43l5.766-.461.039-.685-5.329-.558c2.565-.578,5.147-.581,7.45-2.071-2.862-.989-5.992-.007-8.556-2.371h11.17l.064-.849-11.733-1.858c2.181-1.344,3.753-.9,5.325-.792,1.443.095,3,.988,4.353-.28-2.4-2.227-5.95-.792-8.8-2.69,2.716-.946,4.982.225,7.535.055-2.015-2.864-5.648-1-7.514-3.251,4.389-3.244,9.364-1.689,14.089-1.916,15.653-.752,31.281-.787,46.847,1.5,7.839,1.15,8.064.983,9.761,8.753a457.9,457.9,0,0,0,12.238,45.688c2.479,7.524,5.763,14.8,7.246,22.44-1.031,1.154-3.145-.046-3.2,2.2,1.388,1.23,3.665,1.587,4.149,3.825-.469,1.2-2.416.15-2.63,1.7.951,2.049,3.867.49,4.913,2.516-1.154,1.283-3.5-.008-4.261,2.4l4.3.561-.885,1.192,2.992,2.945c-.611,1.985-3.278.029-3.4,2.457,2.8.467,5.372,1.156,5.462,4.781-.847.915-2.817-.041-3.222,1.749,1.063,1.976,4.788.753,4.915,4.052-1.288.736-3.063-.946-4.071.745.646,3.35,5.481.151,5.918,3.754-.955,1.724-3.458-.346-4.121,1.886,1.134,2.269,3.778.471,5.2,1.841.087,1.933-2.7.309-2.6,1.848.486,2.232,3.534.288,3.648,2.655-.838,1.213-2.79-.2-3.293,1.57,4.513,1.641,4.9,2.475,5.724,6.158.612,2.729-1.617,2.919-2.729,3.726.63,2.085,3.162.686,3.53,2.707-1.134,1.207-3-.405-4.039,1.047.453,2.67,4.2,1.551,4.845,4.025-1.125,1.11-3.116-.447-3.858,1.349,1.3,2.441,4.349.283,5.757,2.474-1.049,2.646-4.524.1-5.667,2.426,1.59,2.237,4.205.147,6.016,1.512-1.278,2.056-4.07.363-5.088,2.5a13.477,13.477,0,0,1,5.016,2.191c-1.224,1.786-4.308.328-5.147,2.639,1.134,1.394,3.211.019,3.961,1.62-.663,3.64-4.683,3.21-6.489,5.19,1.276,2.406,3.694.337,5.218,2.144-4.931,4.323-10.849,3.772-16.544,3.712-5.623-.06-6.673-1.081-7.44-6.555-.623-4.447-.809-8.958-1.53-13.386-2.832-17.394-5.863-34.68-10.868-51.7-6.658-22.646-11.688-45.769-17.472-68.673a55.142,55.142,0,0,0-4.021-11.81c-.884,1-.308,1.8-.182,2.519,3.287,18.69,7.576,37.184,12.539,55.469,6.494,23.925,13.888,47.6,15.924,72.49.531,6.483,1.271,12.949,1.982,20.1-5.325-2.888-5.483-7.395-6.067-11.562-1.708-12.189-2.6-24.481-4.89-36.6-1.5-7.912-5.1-15.142-7.029-22.856-3.393-13.545-6.155-27.247-9.238-40.871-1.637-7.23-3.391-14.433-5.245-22.3a6.235,6.235,0,0,0-.358,5.114c5.013,22.157,8.339,44.673,15.532,66.367,5.362,16.172,6.747,33.185,7.976,50.12.936,12.906,7.537,18.92,20.518,19.43,8.916.35,17.539-1.571,26.262-2.579,8.844-1.021,13.658-7.724,12.929-16.585a89.579,89.579,0,0,0-2.247-12.766c-3.977-17.229-10.076-33.79-15.858-50.442-7.146-20.582-15-40.9-20.272-62.123-7.532-30.332-16.954-60.242-18.858-91.738-.207-3.41-.086-6.151,2.814-8.389,3-2.312,3.724-5.68,4-9.312.506-6.732-1.879-12.77-4.177-18.838-.776-2.049-1.31-3.892,1.223-5,4.4-1.918,4.567-5.114,3.005-9.05a25.307,25.307,0,0,1-1.545-5.774c-1.651-11.894-9.3-18.055-19.962-21.877-27.223-9.757-54.422-8.579-81.97-1.274-15.461,4.1-23.355,14.252-26.831,28.967-.652,2.759-.457,5.1,2,7.171,1.667,1.406,5.151,1.259,4.872,4.246-.207,2.213-1.527,4.355-2.506,6.457a32.653,32.653,0,0,0-3.132,10.47c-.521,5.049.513,9.74,4.36,13.242,2.392,2.178,2.811,4.476,2.528,7.53a349.783,349.783,0,0,1-9.164,52.039C313.7,199,308.111,224.521,298.865,249.028c-7.749,20.54-16,40.892-22.655,61.839-3.185,10.026-5.937,20.117-6.585,30.653C269.172,348.88,276.819,357.619,284.216,357.7Zm60.155-132.2q-5.655,29.622-13.356,58.788c-4.879,18.48-9.631,36.951-11.851,55.964-.332,2.839-2.585,5.456-1.144,8.5.049-.017.092-.038.14-.055,4.211-10.042,4.008-20.934,5.966-31.409a36.885,36.885,0,0,1,3.2-10.65c.856,3.96-.03,7.82-.333,11.7-.53,6.776-.767,13.6-2.234,20.255-.908,4.119-1.9,8.405-6.6,10.107-.027.065-.05.132-.078.2h0l-.119-.12c-7.727,5.822-16.344,5.682-25.193,3.662-2.336-.534-3.38-2.491-4.2-4.586a28.159,28.159,0,0,1-.873-17.195,532.44,532.44,0,0,1,20.864-67.088c5.993-15.51,10.713-31.453,15.438-47.386,2.078-7.009,4.223-14,6.294-21.008,2.262-7.655,3.665-8.533,12.448-7.418-1.37,1.843-3.917,1.072-5.208,2.671,1.069,1.463,3.319.375,4.376,2.039-.354,1.943-2.717.745-3.435,2.058-.006,1.692,1.64.758,2.215,1.48-.473,2.006-2.066,3.1-3.817,4.067,1.407,1.531,3.179.335,4.78,1.7-2.558.7-4.132,2.562-6.465,3.766l2.889,1.037c-.7,1.819-2.966,1.015-3.651,2.65-.007,1.154,1.424.469,1.95,1.6-3.8-.053-2.146,4.215-4.834,5.576,1.137.325,2.033.58,2.928.841.412,1.091-3.95-.24-1.168,2.394.494.467-2.283.592-3.147,1.644.276,1.353,1.727.5,2.415,1.546.356,1.912-4.452,2.889-1.521,5.722-.715,1.441-2.4.869-3.579,1.745.339,1.408,2.19.3,2.689,1.727-1.331,2.063-3.788,2.509-7.288,3.479l5.272.84c-.831,2.429-3.555,1.563-4.762,3.057.693,1.286,2.273.284,3.17,1.291-.6,1.852-2.821,1.42-3.921,2.785-.572,1.825,2.157,1.1,2.205,2.577-.847,1.248-2.6.16-3.509,1.32.724,1.4,2.54.334,3.68,1.8-1.857.618-2.275,2.871-4.437,2.972.534,1.773,2.1,1.3,2.954,2.065-2.59.331-1.024,5.754-6.192,2.989,2.012,2.316,4.068,1,4.875,2.99-1.43,1.562-3.835.555-5.5,1.978,1.078,1.51,3.12.187,4.424,1.656-1.721,1.338-6.305,1.563-2.643,5.637l-4.724,1.4c.908,1.991,3.375.181,4.1,2.148-1.622,1.6-4.306.109-6.04,2.176,1.376,1.545,3.835.058,5.422,1.991l-6.522,1.841c1.478,1.725,3.716.488,5.136,2.076-1.611,1.422-3.845.326-5.5,1.384.769,2,3.108.668,4.355,2.17-1.525,1.589-3.853.321-5.492,1.5.983,1.413,2.852.218,4.058,1.523-1.149,1.877-3.432.433-4.81,1.591,1.085,1.379,3.257.019,4.532,2.045l-5.854.875c.834,1.867,3.114.837,4.088,2.292-1.3,2.174-4.1.366-5.645,2.052,1.513,1.78,3.942.26,5.59,1.656-1.392,1.905-4.079.63-5.672,2.139,1.465,1.575,3.817-.024,5.306,2.05l-7.142,1.76c2.3,1.377,4.363.533,6.278,1.216-.8,1.946-3.187.378-4.207,2.062l3.439,1.243c-2.354,1.8-4.9.525-7.29,1.755,2.109,1.981,5.079.571,7.217,2.116-2.685,2.051-6.375.553-8.973,2.845,2.155,1.148,4.423.089,6.448.837-.985,1.824-.985,1.824-7.948,3.256,2.657,2.03,5.722.545,8.34,1.892-2.333,1.82-5.275.692-7.922,2.038,2.413,1.3,5.6.052,7.355,2.758-2.877,1.9-6.584.894-10.221,3.359,4.115.374,7.217-1.262,10.305-.195.908,2.44-5.582-.341-2.377,3.559-2.218,1.487-4.763.012-7.351,1.486,2.624,1.538,5.359.349,7.675,1.2-2.21,4.179-2.21,4.179-7.606,3.6,2.786,2.383,5.645,1.41,8.331,2.268-.658,1.839-2.73.882-3.744,2.2,1.43,1.7,3.607.962,5.352,1.6-.147,1.527-2,.835-2.51,2,1.13,1.172,2.795.951,4.066.9,2.507-.106,5.306.04,4.59-4.356-.453-2.788,1.591-5.6,2.045-8.576,1.725-11.312,3.7-22.587,5.6-33.872a78.417,78.417,0,0,1,4.143-13.787c5.129-14.065,8.353-28.7,12-43.206,3.242-12.893,6.375-25.813,9.566-38.718a1.824,1.824,0,0,1,1.538-1.568C346.661,211.287,345.72,218.43,344.371,225.5Zm-10.349-42.067c3.112-1.789,6.778-.7,10.111-1.339q.12.534.239,1.07l-9.857,1.961Zm18.41-83.663c-.176.362-.245.5-.314.648l1.967.692c-2.626,3.684-9.443,2.484-9.768,8.653-5.485-6.871-4.819-9.349,3.185-12.44,8.99-3.472,9.2-3.516,13.831-2.692C357.751,95.5,357.188,101.14,352.432,99.765Zm15.7,80.786c8.284-5.917,63.805-3.143,69.947,3.225C415.274,179.618,392.226,180.858,368.129,180.551Zm13.924-62.165c2.1,0,4.208.112,6.3-.021,6.8-.432,13.428-.595,19.845-4.153,6-3.327,12.967-4.916,20.123-7.492-2.449,14.816,1.474,28.771,2.437,43.449l-30.229-7.128c4.585-1.492,8.446.724,12.137-.662-8.806-.638-16.98-4.418-25.621-4.97,10.761.076,21.732-.653,32.679,1.041a37.269,37.269,0,0,0-14.617-3.578c-3.183-.144-5.417-2.691-8.716-2.309-1.78.207-.517-1.3-.195-2.461H383.257c10.169-1.9,20.356-1.248,30.609-.805-9.888-3.95-20.507-3.871-31-5.643,2.51-.619,5.01.238,8.105-1.368l-10.028-.7c7.3-2.182,15.035-.048,22.207-2.931C396.122,119.514,389.1,118.524,382.053,118.386Zm.121-2.776c6.427-1.3,12.782-2.373,19.834-1.064C395.108,115.978,388.68,115.723,382.174,115.61Zm52.323,56.1c-5.775,1.014-11.365-1.066-17.016-.376,5.513,2.351,11.813.934,17.263,3.812-12.53.2-25.043.576-37.547-.981h19.534c-7.265-3.5-14.984-1.86-22.482-3.086h13.482c-5.946-2.072-12.035-.859-18.027-1.683a55.224,55.224,0,0,1,18.594-.659c6.268.758,12.63-.328,19.861,1.487-4.625-2.456-9.3-3.317-17.341-3.405a152.745,152.745,0,0,1-16.917-.7h19.546c.447-1.874-1.8-.675-1.6-2.182l5.634-.95c-9.88-1.262-19.785-1.008-29.573-2.715H410.56c.245-1.689-1.72-1.577-1.722-2.747l-.01,0h0q-.505.274-.325.175l.323-.175h-.061a59.341,59.341,0,0,1-15.483-.483c5.195-.912,10.314.584,15.483.483l.072-.007v.008c5.721.909,11.491,1.59,17.142,2.819,3.183.693,7.578.674,7.4,5.881-2.781,1.413-5.189-.594-7.764.108C428.57,168.105,432.5,167.924,434.5,171.712Zm-2.045-12.054-18.814-3.623c1.333-1.586,2.9-.739,5.077-2.034-10.122.377-19-1.225-27.991-1.645,10.384-.393,20.756-.878,31.172-.289-8.321-2.977-17.084-2.63-26.646-3.166,4.094-1.15,7.841.572,10.588-2.27h0l-.729.389c.238-.129.48-.258.724-.389h0c6.82,1.32,13.719,2.139,20.391,4.327C430.427,152.335,432.683,154.548,432.452,159.658ZM405.834,146.63ZM365.992,55.87c5.9,3.943,11.173,2.1,16.948-2.392.247,3.951,2.088,7.208-1.526,9.779-3.217,2.288-8.864,2.909-11.749,1.18C366.584,62.59,365.537,60.289,365.992,55.87Zm-7.813.836c2.24,4.618,1.868,6.338-2.145,8.952a17.559,17.559,0,0,1-4.455,2.143c-6.049,1.815-7.93.233-7.86-6.541C349.871,64,353.881,59.884,358.179,56.706Zm-19.7,4.923c1.24,4.04-.126,7.249-3.174,10.787C332.459,64.96,333.374,62.227,338.483,61.629ZM277.8,338.64c.949-13.1,5.5-25.3,9.216-37.715,6.256-20.9,15.584-40.72,22.235-61.443,11.695-36.434,21.73-73.345,26.37-111.48a106.551,106.551,0,0,0,.465-10.953c.05-2.772-.7-5.267-3.109-6.994-3.084-2.21-3.81-5.344-3.235-8.85.887-5.413,1.738-10.842,2.926-16.193.689-3.1.4-5.129-2.608-7.04-5.085-3.232-4.983-3.844-1.4-9.535,1.173,3.571,4.156,5.324,6.056,7.872.557-.062,1.054.019,1.161-.149,3-4.694,6.166-7.3,12.341-4.155,3.6,1.833,7.228-1.383,10.254-3.781,1.682-1.334,3.241-2.821,5.183-4.527,3.155,2.937,6.521,6.358,12.078,5.471,5.082-.813,8.535-4.179,13.037-7.517,3.628,5.858,8.956,8.25,15.614,7.411,3.23-.407,5.4-2.385,7.191-5.29,2.5,3.031,3.748,6.885,8.044,7.949a18.7,18.7,0,0,0,12.911-1.288c-.006-.03-.011-.062-.018-.092.017.016.034.03.05.046,2-3.111.948-6.333.218-9.492a3.1,3.1,0,0,0-2.853-2.453c-10.065-.71-19.221-4.739-28.665-7.73-1.231-.39-2.557-.484-3.787-.983,13.94-3.654,26.577-.194,38.51,7.14,2,1.227,2.163,3.3,2.26,5.254.162,3.264.044,6.541.044,9.851-2.451,1.126-4.135-.067-5.727-1.587l-.025.044-.007,0c.61,3.042.714,6.585,4.927,6.886,2.486.178,4.748-4.071,4.733-8.325-.005-1.648,0-3.3,0-4.835,5.83,7.465,5.552,11.5-1.28,15.169a60.2,60.2,0,0,0,2.1,16.12c1.348,5.568.535,10.562-3.467,14.847-2.195,2.351-2.75,5.195-2.675,8.308a212.982,212.982,0,0,0,4.84,39.575c6.316,29.446,13.524,58.692,23.226,87.2,7.823,22.985,16.2,45.779,23.3,69.009a94.016,94.016,0,0,1,4.6,25.936c.1,5.568-2.326,9.474-7.827,12.522,3.886-13.27,1.717-25.763-1.674-38.01C479.615,301.372,475.19,288.1,471,274.772c-8.133-25.861-17.378-51.368-24.105-77.677a566.205,566.205,0,0,1-14.632-78.419,45.669,45.669,0,0,1,.752-14.258c-.038.008-.076.013-.114.022,0-.055,0-.1,0-.155-3.058-.354-5.7-.443-8.972,1.093-12.4,5.821-25.354,10.018-39.575,7.059a22.676,22.676,0,0,1,8.331-2.822c-4.294-1.242-8.669-.612-14.244-.911,5.912-2.227,11.008-.957,15.8-2.607h-17.5c0-.2,0-.392.007-.588l18.565-1.929-15.3-2.068c3.04-1.859,6.427-.388,10.305-2.331H373.78q-.048-.5-.094-.993l11.57-1.63c-5.3-1.878-10.94.774-16.222-2.362,1.521-1.7,3.408-1.606,5.039-1.687,13.323-.668,26.626-.657,39.829,1.652,5.3.926,10.2,3,15.06,5.17,2.122.948,4.12,2.151,3.937,4.954l.136.015c-.008.039-.014.079-.022.118,2.161-.462,4.59.526,6.79-1.186-1.09-6.376-2.2-12.715-3.247-19.065-.544-3.3-2.708-4.614-6.12-5.29.813,6.018,1.578,11.679,2.474,18.32-18.108-9.165-37.134-8.022-55.729-10.154h22.4c-2.527-1.612-5.245-.917-8.4-1.487l3.233-.8-1.7-2.095,4.372-.749q.018-.361.037-.723l-9.952-.664c2.508-1.742,4.839-.883,7.473-2.162a155.577,155.577,0,0,0-20.131-.484c3.111-2,6.02-1.264,8.48-2.449-8.13-.532-16.262-1.284-24.216,1.516a54.526,54.526,0,0,1-8.043,2.66c-4.455.817-7.175,3.22-8.4,7.5.931.7,1.506-.109,2.9-.939-1.533,3.211-2.762,5.785-3.99,8.359l-.768-.306c.545-5.164,1.09-10.328,1.642-15.549-2.627-1.176-4.03-.036-4.417,1.925-1.5,7.6-2.777,15.241-3.993,22.055,1.89,2.509,3.5.433,4.854,1.4,2.679,9.037,1.114,18.23-.011,27.188-3.025,24.086-6.978,48.1-13.791,71.411-7.038,24.089-15.661,47.689-24.113,71.338-6.983,19.538-14.022,39.139-17.133,59.86-1.105,7.356.229,14.068,3.056,20.782C280.8,350.759,277.277,345.891,277.8,338.64ZM390.624,57.193c4.449-.5,8.529-1.046,12.628-1.364,1.8-.14,4.455-1.278,4.978,1.554.474,2.567.142,5.439-2.4,7.137C400.52,68.067,391.754,63.919,390.624,57.193Zm25.754,1.035c2.509-.563,4.551.41,6.606.916,2.67.657,5.94,1.112,5.49,5.081-.278,2.447-.6,5.311-4.121,5.136-3.457-.171-7.271-.059-8.366-4.572C415.482,62.7,415.114,60.553,416.378,58.228Z"/><path class="cls-1" d="M761.715,438.3c-.642-7.5-2.469-14.546-9.935-18.422-2.2-1.141-1.757-2.89-1.417-4.73a77.4,77.4,0,0,0,1.454-13.88c.048-20.828-9.9-33.391-30.259-38.022-9.378-2.134-18.824-3.6-28.959-1.326,1.467-16.551-.357-31.5-15.025-41.258-14.335-9.532-29.086-6.655-43.889.192-4.321-11.576-10.586-21.376-17.671-30.625-2.642-3.448-4.15-6.708-2.669-10.975.847-2.44-.564-5.459-2.171-5.44-6.185.07-9.1-4.447-11.911-8.266-3.434-4.66-10.971-8.308-6.126-16.264.075-.124-.29-.516-.458-.8-1.714-.114-1.555,2.725-4.138,2.041-.44-2.878-.973-6.128-4.462-7.818a36.322,36.322,0,0,0-9.95-3.049c2.326-2.888-.489-3.722-1.686-4.551-6.145-4.255-8.272-10.671-5.264-17.113-1.407-1.913-3.208-3.533-4.106-6.012-1.2-3.3-.059-6.278.583-9.226.611-2.805,3.685-1.353,5.605-1.922a4.263,4.263,0,0,0,2.791-1.767c2.913-4.6,3.721-4.59,6.714-.1.478.717.388,2.155,1.926,1.664.832-6.688-1.258-10.2-6.951-10.724-4.336-.4-8.72-.143-10.08-6.671-1.407,4.353-1.413,4.363-8.2,9.477.867-4.767-4.56-4.341-6.23-7.334-2.07-3.711-5.27,2.045-8.205-.378-.462,3.852-.415,7.353-5.781,9.66,3.2-4.068.875-6.08-1.294-8.584,3.05-.629,4.952-1.963,4.216-5.177l3.393.75c.381-1.732-.095-3.56,2.343-4.384,2.564-.866,1.871-2.722.065-4.108-1.016-.78-1.924-1.913-2.816-1.679-2.053,2.833-2.454,6.313-6.177,7.418-1.052-2.477-1.049-4.279.045-6.224,1-1.777,3.277-2.128,4.28-3.928-4.608-2.129-7.111-1.825-12.846,2.385-2.151,1.579-3.417,1.747-5.539.015-4.841-3.949-10.545-2.066-12.746,3.932a5.488,5.488,0,0,1-.8,1.817c-3.062,3.379-4.032,9.352-10.734,8.257-1.936-.316-2.771,1.388-2.451,3.433.249,1.584-.045,3.079-1.9,3.538-3.207.792-9.873-3.049-10.532-6.224-3.411-16.435-8.838-32.382-11.656-48.974-.791-4.662-.538-8.549,1.72-12.816,5.241-9.906,7.375-20.3,2.584-31.158-.976-2.211-.238-4.187.866-6.155a26.365,26.365,0,0,0,3.166-13.438c-.159-16.992-10.222-41.732-33.853-49.709-6.4-2.159-12.456-5.344-19.137-6.651-10.929-2.138-21.893-3.98-33.084-4.223-17.969-.39-35.243,3.205-52.589,7.57-23.106,5.814-36.61,20.556-43.028,42.622-2.461,8.461-2.824,17.071,2.287,25.01a4.711,4.711,0,0,1,.492,4.734c-5.447,12.14-3.126,23.352,4.213,33.874a8.529,8.529,0,0,1,1.293,7.536c-1.421,5.468-2.618,11-4.13,16.439-3.025,10.887-4.312,22.176-7.84,32.954-1.222,3.733-3.26,5.778-7.157,6.582a45.255,45.255,0,0,0-16.482,6.825,13.236,13.236,0,0,0,.378-1.936c.069-1.376-.041-3-1.874-2.761-1.914.245-1.958,2.029-1.721,3.532.177,1.123,1.191,1.471,2.243,1.562-3.907.819-6.975,3.814-10.259,4.322-2.388-.5-1.026-2.8-2.851-3.225-1.785,3.108-3.147,6.971-6.325,8.618a73.123,73.123,0,0,0-14.553,9.323c-2.709,2.343-5.107,2.354-6.778-2.023-1.353,2.885-3.635,1.843-5.932,2.279,2.339,4.247.246,6.326-3.316,7.724-1.423.558-3.45,1.816-2.875,2.976,1.286,2.6-.75,3.018-1.889,3.979-2.8,2.361-5.728,4.559-8.559,6.878a233.279,233.279,0,0,0-38.06,38.7c-13.353,17.5-24.915,36.049-33.861,56.289a332.756,332.756,0,0,0-22.141,70.757c-1.626,8.287-2.579,16.679-3.53,25.178-7.182.582-14.019-.3-20.74,1.26-36.2,8.382-60.43,29.313-69.876,66.017-6,23.315,7.429,49.057,26.742,58.032,4.795,2.229,9.523,4.542,15.25,5.543C53.818,573.261,49.835,586.263,48,599.828a4.5,4.5,0,0,1-2.226,3.206c-7.523,4.415-11.9,11.478-15.874,18.843-11.05,20.5-5.4,37.932,11.86,50.11,5.653,3.987,12.035,6.836,19.14,6.161,27.247-2.586,43.74-13.66,51.2-39.171.438-1.5.3-3.334,2.542-4.562,8.079,11.988,19.948,17.288,34.72,17.5-1.492,4.124-2.665,7.213-3.729,10.339-4.685,13.757-3.679,26.449,5.138,38.753,14.3,19.95,39.8,29.186,63.438,22.156,8.316-2.473,16.574-5,24.1-9.46a1.862,1.862,0,0,1,2.4-.012c.92,1.9.029,3.783-.459,5.683-6.425,25.046-8.753,50.028-.287,75.218,3.984,11.856,10.029,22.069,19.729,29.979,13.609,11.1,29.131,18.739,45.832,23.715C354.914,863,404.755,864.8,454.893,852.127c16.975-4.291,33.881-8.868,47.983-20.079,3.254-2.587,6.435-5.276,9.805-7.7a57.559,57.559,0,0,0,23.434-36.438c5.826-28.977,3.1-57.613-4.68-85.912-1.76-6.4-1.823-6.489,4.235-9.5a163.611,163.611,0,0,0,22.364-13.114,279.4,279.4,0,0,0,57.392-54.423c9.439-11.929,18.211-24.179,24.762-37.928.87-1.826,2.116-3.673,1.664-6a14.51,14.51,0,0,0-9.728,7.438c-1.506,2.583-3.357,4.962-4.98,7.479-23.4,36.288-54.037,65.189-90.285,88.342-2.624,1.677-5.189,3.6-8.776,4.489-2.173-6.9-5.669-13.3-6.667-20.867a67.379,67.379,0,0,0,31.471-16.618c2.832-2.572,5.841-4.947,8.723-7.464,16.863-14.719,32.609-30.432,44.128-49.874,1.657-2.795,3.475-5.548,4.082-8.672-4.533-1.341-7.432.405-9.747,3.7-1.049,1.493-2.356,2.8-3.492,4.237a338.4,338.4,0,0,1-63.409,61.171c-3.983,2.976-8.308,5.425-13.692,6.265-2.237-6.42-1.012-12.656-.125-18.851,2.289-15.973,5.965-31.736,7.466-47.825.567-6.069,2.341-8.056,8.61-8.014,2.013.013,4.118.337,5.795-.935,3.459-2.624,7.754-2.845,11.559-4.379,5.291-2.132,10.785-.2,16-1.559,9.178-2.392,18.322-4.911,27.47-7.417,1.119-.307,2.5-.295,3.38-1.9l-7.5,1.335c4.123-2.407,8.69-4.8,13.06-4.064,4.49.755,8.162-.429,11.936-1.757a77.011,77.011,0,0,1,12.455-3.436,46.194,46.194,0,0,0,12.293-4.069,119,119,0,0,1,19.212-6.989c19.2-5.539,37.62-13.132,52.908-26.109,15.25-12.945,28.483-27.989,38.333-45.641C759.392,466.4,762.961,452.862,761.715,438.3ZM545.37,189.614c.9-1.255,2.041-.7,3.1-.236,2.349,1.028,5.116,1.216,6.909,3.371h-4.19c.424,4.07-1.988,5.443-5.8,6.391a6.117,6.117,0,0,0-.291-6.335A2.609,2.609,0,0,1,545.37,189.614Zm-28.793-12.632c2.348,1.947,2.348,1.947-.24,5.262C515.136,180.032,515.391,178.507,516.577,176.982Zm-31.231,22.292c7.305,2.154,13.581,5.93,20.1,9.168a291.116,291.116,0,0,1,77.789,56.022c15.529,15.662,28.415,33.42,39.843,52.247.687,1.132,1.092,2.433,1.765,3.575,2.164,3.678,1.909,6.618-1.786,9.393-3.456,2.6-5.656,6.443-8.375,10.888-3.678-7.174-7.032-13.483-10.178-19.894-10.291-20.965-25.4-38.049-42.651-53.471-19.074-17.048-39.617-32.1-62.881-42.743-7.9-3.611-11.912-7.967-12.415-16.21C486.381,205.339,484.72,202.594,485.346,199.274ZM608.339,351.81a187.321,187.321,0,0,0-7.7,31.952c-.651,4-9.927,6.814-13.069,4.133-1.227-1.048-1.15-2.743-1.3-4.18-2.051-19.921-13.74-32.611-31.012-40.863-8.721-4.167-18.285-4.611-28.479-4.764-2.322-19.791-8.872-38.136-14.762-56.656-3.889-12.227-9.126-23.925-14.122-35.716a55.773,55.773,0,0,1-3.947-14.37c8.825,4.426,16.234,9.775,23.984,14.54,18.249,11.218,34.22,25.248,48.886,40.74A237.82,237.82,0,0,1,607.974,347,6.014,6.014,0,0,1,608.339,351.81ZM118.358,408.75C126.526,366.615,141.746,327.523,166.4,292c22.071-31.793,51.139-55.18,83.892-74.736,10.865-6.488,21.761-12.884,33.417-17.868,1.94-.829,3.8-2,6.644-2.057a135.368,135.368,0,0,1-4.086,18c-.49,1.631-1.969,2.068-3.34,2.72-54.707,25.982-97.05,64.938-124.1,119.5-9.861,19.889-16.087,41.159-20.627,62.911-1.768,8.472-3.407,16.96-4.773,25.5-.6,3.77-1.362,7.678,2.4,10.695-7.085-1.7-13.431-4.7-20.635-5.928C115.527,423.027,116.976,415.881,118.358,408.75Zm116.005,9.112c-.134,3.436-.022,6.881-.022,10.976-2.875-1.26-3.824-3.112-4.836-4.638-7.129-10.762-18-13.946-29.857-14.009-20.134-.107-39.545,13.689-46.868,32.448-.837,2.144-1.271,4.487-3.118,6.668-4.188-2.525-6.572-6.85-10-10.062-1.169-1.1-.109-2.525.047-3.793,1.961-15.926,7.508-30.979,11.382-46.437a241.132,241.132,0,0,1,29.862-69.883c10.067-16.052,22.949-29.755,36.309-42.971,18.646-18.446,39.839-33.664,62.2-47.284a24.213,24.213,0,0,1,2.363-.965c-3.341,12.75-8.152,24-13.111,35.222-10.781,24.4-19.935,49.346-23.132,76.031-1.523,12.719-1.657,25.556-1.785,38.361-.059,5.943-.952,11.5-3.944,16.755C235.708,401.558,234.681,409.658,234.363,417.862Zm.8,49.639c-.093,1.354-1.374,1.712-2.514,2.053a21.019,21.019,0,0,1-12.142.219c3.88-7.442,9.816-12.724,13.464-19.838A63.948,63.948,0,0,1,235.16,467.5ZM753.1,456.4c-3.882,13.954-9.908,26.84-19.534,37.826a144.8,144.8,0,0,0-10.755,13.761,69.926,69.926,0,0,1-24.825,21.928c-16.912,9.258-35.164,15.134-53.495,20.606-25.985,7.757-52.146,14.933-78.283,22.173-13.62,3.773-27.335,7.212-41.048,10.64-2.082.52-3.132,1.224-3.458,3.43-2.583,17.449-6.737,34.609-9.322,52.08-2.092,14.139-.183,27.436,4.484,40.686,9.646,27.387,15.093,55.6,14.633,84.674-.3,18.662-5.158,36.216-16.536,51.461a76.2,76.2,0,0,1-31.023,24.451c-19.037,8.3-39.1,13.044-59.722,15.5-28.616,3.407-57.2,3.35-85.586-1.654-23.575-4.155-46.339-10.9-66.434-24.7-13.725-9.422-21.721-22.605-26.065-38.367-6.085-22.083-4.137-44.21-.537-66.357a162.221,162.221,0,0,1,5.143-22.873c.382-1.21.9-2.459.36-3.813-1.893.225-2.583,1.719-3.637,2.69-15.626,14.391-34.063,21.332-55.226,19.558-22.994-1.927-40.419-19.276-42.428-41.365-.931-10.23,2.381-19.318,7.927-27.769,1.586-2.416,3.869-4.477,4.984-8.831-10.515,6.356-20.556,5.893-30.4,1.733-9.667-4.084-16.311-11.676-21.384-21.295-2.31,3.2-2.2,6.272-2.707,9.106-2.716,15.089-9.117,27.922-22.856,35.8C74,674.005,62,677.719,49.33,670.946c-21.816-11.663-23.644-43.144-3.22-57.689a20.242,20.242,0,0,0,8.426-12.328C58.263,586.108,62.207,571.341,66,556.8c-1.093-1.736-2.586-1.32-3.818-1.523-22.1-3.658-37.683-20.671-38.77-43.164-1.024-21.191,7.522-38.727,22.994-52.606,16.459-14.765,35.96-22.8,58.382-21.692,14.065.7,27.244,4.4,37.539,15.042,4.124,4.262,6.354,9.556,9.579,14.957.826-3.088,1.632-6.181,2.479-9.263,3.551-12.926,8.6-24.868,20.646-32.429,10.7-6.717,21.9-10.392,34.592-6.537a31.954,31.954,0,0,1,14.522,9.33c4.966,5.453,5.689,13.925,1.765,21.509-3,5.789-7.247,10.756-10.985,16.056-1.915,2.714-3.638,5.483-4.074,9.275,9.6-.044,18.824.776,27.623-3.306,3.2-1.485,3.748-3.767,3.85-6.779.47-13.82-.152-27.629-.526-41.434-.28-10.37.647-20.292,6.942-29.024,1.451-2.012,1.457-4.377,1.409-6.72a131.463,131.463,0,0,1,2.079-28.826,14.255,14.255,0,0,0,.363-3.968c-1.787-20.643,4.167-39.827,10.8-58.944,5.293-15.26,11.724-30.054,17.817-44.986,6.061-14.853,9.934-30.331,13.542-45.894,3.717-16.036,8.98-31.691,11.906-47.917,1.712-9.492,3.183-19.026,4.779-28.538a6.788,6.788,0,0,0-1.195-5.086c-6.431-10.273-9.17-21-2.747-32.387,1.213-2.151.651-3.812-.747-5.44-4.487-5.222-4.433-11.1-2.972-17.42,5.007-21.665,17.731-35.578,39.751-40.645C358.6,24.977,373.507,20.7,389.212,21.2c18.99.6,37.213,4.194,54.7,12.007,20.207,9.025,25.957,31.575,26.124,45.481a10.214,10.214,0,0,1-2.787,7.3c-2.145,2.258-2.068,4.136-.812,7.029,4.767,10.972,3.22,21.481-3.843,31.03-1.49,2.014-1.553,3.618-1.233,5.9,3.891,27.76,11.577,54.632,18.69,81.653a497.287,497.287,0,0,0,17.638,54.554A444.974,444.974,0,0,1,516.4,325.1c1.712,7.206,3.8,14.548-.212,22.492,4.556-.412,8.138-.73,11.718-1.062,27.086-2.514,49.647,17.127,50.468,44.081.093,3.024.628,4.667,4.128,4.487,5.186-.267,10.2,1.443,15.345,1.782,5.825.384,7.565-.7,8.94-6.327,1.972-8.075,3.409-16.28,5.312-24.373,4.328-18.411,14.107-32.484,32.185-39.85,11.711-4.771,24.332-2.339,32.642,6.38,8.469,8.886,10.058,20.418,4.492,32.355-.842,1.805-1.586,3.659-2.3,5.52a6.211,6.211,0,0,0,.094,1.9c7.456-1.283,14.728-2.9,22.216-2.762a105.431,105.431,0,0,1,20.32,2.191c14.147,3.049,22.017,12.838,21.895,27.348-.07,8.3.022,16.738-5.547,23.681.629,2.363,2.619,2.6,4.3,3.1,7.767,2.287,11.147,7.9,11.959,15.511A39.427,39.427,0,0,1,753.1,456.4Z"/></svg>