<svg id="Layer_1" data-name="Layer 1" xmlns="http://www.w3.org/2000/svg" viewBox="0 0 778.137 409.193"><defs><style>.cls-1{fill:#fff;}</style></defs><path class="cls-1" d="M742.651,151.225a7.237,7.237,0,0,0-3.709-1.214,5.024,5.024,0,0,0-3.249,1.234c-1.726,1.412-2.545,3.471-3.571,5.366a20.569,20.569,0,0,1-8.9,9.144,4.966,4.966,0,0,1-2.192.564,3.84,3.84,0,0,1-2.5-.941c-1.431-1.183-1.032-2.655-.59-4.125.957-3.185,1.831-6.4,2.871-9.553,5.2-15.794,10.553-31.541,15.626-47.377,1.838-5.736.862-7.87-3.867-7.87a24.824,24.824,0,0,0-2.78.183c-2.643.3-5.284.633-7.913,1.031a10.3,10.3,0,0,1-1.531.117,9.689,9.689,0,0,1-4.274-1.009,32.2,32.2,0,0,0-14.081-3.417c-8.009,0-15.462,3.381-22.068,9.212-17.414,15.372-28.62,34.414-29.886,58.342-.437,8.27-6.124,13.371-12.077,17.935a4.325,4.325,0,0,1-2.6,1c-1.908,0-3.353-1.746-3.287-4.491a49.05,49.05,0,0,1,1.194-8.883c1.83-8.659,5.433-16.759,8.12-25.15,5.7-17.782,15.153-34.023,21.021-51.753,4.23-12.779,8.539-25.547,14.133-37.842,2.249-4.942-.1-8.956-4.736-9.075-.166,0-.331-.006-.5-.006-9.253,0-19.794,6.507-23.284,15.078-6.018,14.78-11.919,29.618-17.413,44.6-5.606,15.287-10.022,30.981-16.344,46.048-3.8,9.046-5.328,18.881-6.47,28.649a32.309,32.309,0,0,0,.793,12.389c2.041,7.39,9.026,12.646,15.884,12.646a12.514,12.514,0,0,0,5.59-1.29c8.974-4.45,14.825-12.293,20.169-20.5.953.794,1.045,2.4,1.648,3.731,3.435,7.609,9.39,11.693,16.364,11.693a21.815,21.815,0,0,0,9.2-2.2c7.06-3.289,11.586-9.207,16.157-15.768,3.941,8.831,8.758,13.163,14.621,13.163,3.906,0,8.276-1.922,13.16-5.717a30.169,30.169,0,0,0,3.773-3.261c7.018-7.626,12.388-16.452,18.042-25.064C744.446,154.938,745.2,152.782,742.651,151.225Zm-32.288-37.868c-5.242,16.272-8.971,33.07-16.574,48.53a24.3,24.3,0,0,1-5.53,7.641,9.456,9.456,0,0,1-6.422,2.46,12.231,12.231,0,0,1-3.423-.517c-3.279-.956-3.641-4.054-4.188-6.81a27.9,27.9,0,0,1-.16-9.477c2.906-17.5,9.413-33.18,23.15-45.163a10.74,10.74,0,0,1,7.1-3.093,9.234,9.234,0,0,1,1.546.132C709.474,107.669,711.458,109.959,710.363,113.357Z"/><path class="cls-1" d="M222.335,218.374a33.122,33.122,0,0,1-13.452,17.389,8.6,8.6,0,0,1-4.654,1.7c-2.891,0-4.811-2.467-4.968-6.884a37.307,37.307,0,0,1,2.268-13.229c4.882-14.5,9.032-29.249,14.737-43.482,2.162-5.393,3.7-11.041,5.445-16.595,1.113-3.534-.36-5.637-3.9-5.637h-.117c-5.748.073-11.394,1.427-17.242,1.427a31.466,31.466,0,0,1-4.577-.316,32.307,32.307,0,0,1-1.909,13.019c-4.025,11.1-7.51,22.379-10.916,33.683-3.828,12.706-9.237,24.978-10.183,38.458-.623,8.877,2.9,15.993,10.432,20.069a16.27,16.27,0,0,0,7.824,2.058c4.543,0,8.976-1.985,13.074-5.246,4.533-3.607,8.04-8.237,12.369-12.278a14.027,14.027,0,0,1,.953,1.49c3.025,6.755,5.994,9.748,10.752,9.748a23.409,23.409,0,0,0,8.147-1.926c6.853-2.654,13.365-5.786,17.62-13.767,1.02,4.08-1.792,6.566.15,9.328,1.24.116,2.474.17,3.706.17a59.838,59.838,0,0,0,16.285-2.6c2.09-.592,2.811-2.142,3.2-4.031,3.038-14.889,9.329-28.765,13.5-43.3a28.63,28.63,0,0,1,2.166-5.543c.867-1.631,2.244-3.095,4.107-3.095a3.709,3.709,0,0,1,.637.056c2.49.431,2.529,2.858,2.64,4.8a148.674,148.674,0,0,1-.353,17.958c-.443,6.921.389,13.606,3.932,19.769,3.169,5.511,7.7,8.32,13.49,8.32a20.313,20.313,0,0,0,3.248-.274c8.294-1.35,14.839-5.613,20.106-12.006,1.642-1.993,3.212-4.045,4.932-6.219.879.921,1.441,1.524,2.018,2.112,6.125,6.249,12.689,9.395,19.833,9.395a31.4,31.4,0,0,0,13.791-3.541c10.474-5.121,19.129-12.582,26.6-21.482,2.295-2.735,2.89-6.534,5.646-8.959.155-3.1,3.327-5.856,1.219-9.537-2.9.353-4.006,2.582-5.482,4.248-6.346,7.164-13.042,13.829-22.64,16.534a20.311,20.311,0,0,1-5.5.8c-8.7,0-14.846-6.578-13.762-18.439a2.417,2.417,0,0,1,2.588-2.423c12.748-.807,22.871-7.365,32.791-14.594A49.037,49.037,0,0,0,422,148.253c2.69-9.951-1.667-22.168-15.914-23.987a27.161,27.161,0,0,0-3.456-.222,31.3,31.3,0,0,0-15.223,4.272c-28.015,15.415-42.352,39.724-44.581,71.066-.512,7.2-2.881,12.317-7.651,16.941-1.563,1.517-3.27,3.166-5.447,3.166a4.691,4.691,0,0,1-1.535-.268c-2.8-.964-2.826-3.845-3.266-6.268a32.163,32.163,0,0,1-.534-4.455c-.458-11.621-.649-23.29-7.863-33.688,15.716-8.341,26.682-21.361,39.423-32.256a17.881,17.881,0,0,0,5.076-6.1c1.07-2.418.49-4.616-2.4-4.738-1.955-.083-3.912-.136-5.869-.136a69.972,69.972,0,0,0-13.518,1.165c-2,.392-2.87,2.082-3.925,3.595-4.463,6.4-8.406,13.2-14.521,18.32a116.8,116.8,0,0,0-15.658,15.37c-.5.616-.963,1.547-1.973,1.547a2.3,2.3,0,0,1-.883-.2c1.762-6.322,3.181-12.66,5.293-18.759,7.024-20.273,14.327-40.45,21.452-60.69,1.654-4.7,3.334-9.426,2.709-14.585-.364-3.009-.785-4.234-2.278-4.234a9.61,9.61,0,0,0-3.065.81c-6.056,2.314-11.389,6.222-17.707,8.014-1.727.489-2.208,2.321-2.772,3.923-3.92,11.135-7.772,22.3-11.844,33.376-10.954,29.806-20.872,59.971-30.729,90.145-2.486,7.611-7.715,12.615-12.394,18.309a4.6,4.6,0,0,1-3.594,1.72,5.367,5.367,0,0,1-2.812-.834c-2.175-1.343-1.362-3.43-.738-5.379a626.281,626.281,0,0,1,21.95-59.394c2.887-6.626,4.954-13.609,7.562-20.9a21.76,21.76,0,0,0-3.694-.309c-7.18,0-13.51,3.288-20.055,3.288a17.909,17.909,0,0,1-2.051-.114c-1.487,4.66-2.818,8.768-4.108,12.889C237.1,178.813,229.05,198.36,222.335,218.374ZM393.687,139.64a12.1,12.1,0,0,1,2.474-1.664,11.342,11.342,0,0,1,5.328-1.786,5.164,5.164,0,0,1,3.11,1.013c2.842,2.061,1.27,5.239.507,7.825-4.592,15.569-14.082,26.352-31.18,30.9A66.625,66.625,0,0,1,393.687,139.64Z"/><path class="cls-1" d="M417.994,206.053l.176-.163C416.694,209.1,415.622,212.418,416,216c.59,5.573,3.321,9.577,8.645,11.781a10.772,10.772,0,0,0,4.152.882c3.389,0,6.253-1.844,8.941-4.342,2.925-2.718,4.112-6.4,5.087-10.114,1.183-4.512.506-8.58-3.192-11.808a12.822,12.822,0,0,0-8.556-3.527,13.547,13.547,0,0,0-4.391.774c-3.59,1.226-6.112,3.8-8.666,6.382l-.036.032v0Z"/><path class="cls-1" d="M172.459,351.524a49.308,49.308,0,0,0,16.773,3.127c9.811,0,19.127-3.444,27.667-10.707a188.924,188.924,0,0,1,39.566-25.9c21.415-10.467,43.762-18.495,66.418-25.857,33.255-10.807,67.114-19.249,101.258-26.509,36.749-7.815,73.791-14.175,110.826-20.5,41.474-7.088,83.3-12.169,124.317-21.853,13.961-3.3,27.784-6.937,39.974-14.961,2.054-1.353,4.312-2.5,4.751-5.466a4.276,4.276,0,0,0-2.74-.987,11.4,11.4,0,0,0-3.456.8c-3.633,1.191-7.2,2.633-10.907,3.539a771.814,771.814,0,0,1-106.112,18.286c-33.254,3.349-66.61,5.7-99.932,8.351-30.18,2.4-60.271,5.521-90.284,9.564-46.649,6.285-93.295,12.468-138.619,25.818-22.237,6.549-43.927,14.5-64.322,25.634-8.926,4.87-17.522,10.365-24.456,17.933C151.059,325.065,155.633,345.446,172.459,351.524Z"/><path class="cls-1" d="M135.718,273.123c1.421.124,2.851.161,4.283.161,1.066,0,2.133-.021,3.2-.04,4.378-.081,7.326-1.66,7.316-6.717,0-1.783.727-3.572,1.149-5.351,3.575-15.089,9.787-29.328,14.228-44.147,7.54-25.158,16.2-49.962,25.065-74.675,5.743-16.006,9.841-33.152,25.21-43.7.217-.149.232-.593.367-.969a7.189,7.189,0,0,0-7.407-5.178,14.429,14.429,0,0,0-2.207.181,69.441,69.441,0,0,0-18.577,5.61,12.933,12.933,0,0,0-6.744,6.986c-11.637,27.407-21.914,55.317-31.1,83.631-2.948,9.085-7.345,17.619-10.043,26.9-.041-9.4-1.169-18.638-1.357-27.9-.445-21.826-3.375-43.448-4.856-65.185-.452-6.641-2.76-10.967-9.722-14.364a52.351,52.351,0,0,0-23.093-5.3,60.7,60.7,0,0,0-41.847,17.354c-14.1,14.03-17.267,31.257-9.837,46.88,3.3,6.942,11.942,10.769,19.769,10.769a18.14,18.14,0,0,0,9.7-2.506c3.12-1.988,4.668-4.448,4.468-8.226-.195-3.672-2.794-4.461-5.5-5.5-6.934-2.669-9.954-7.174-9.911-14.457.089-14.611,12.259-28.014,27.569-30.3a95.755,95.755,0,0,1,14.275-.815c1.764,0,3.6.016,5.53.032-4.545,3.657-5.974,7.67-6.979,11.9a95.569,95.569,0,0,1-5.258,16.1c-9.83,22.6-16.714,46.274-25.476,69.263-8.456,22.183-15.45,45.093-32.608,62.754a11.818,11.818,0,0,0-2.117,3.363C39.373,288.1,43.9,295.2,53.015,295.2l.359,0a34.57,34.57,0,0,0,14.418-3.636c4.19-2.022,7.3-4.852,8.7-9.63,1.59-5.414,4.134-10.544,5.778-15.946,10.562-34.7,23.578-68.628,32.809-103.491a8.692,8.692,0,0,1,.344,2c-.288,13.652,1.183,27.241,1.44,40.876.349,18.469,1.355,36.9,4.75,55.107C123.24,269.172,126.83,272.346,135.718,273.123Z"/><path class="cls-1" d="M538.059,116.858a25.413,25.413,0,0,0,16.074-5.152,44.729,44.729,0,0,0,13.992-17.913c7.122-16.587-1.485-35.119-18.346-39.462A43.062,43.062,0,0,0,539,52.981a50.485,50.485,0,0,0-11.47,1.372c-17.227,4.015-31.736,12.816-43.839,25.484q-40.62,42.518-41.275,101.435c-.143,11.986,4.445,22.128,12.639,30.539,5.992,6.152,13.14,9.765,21.5,9.765a30.793,30.793,0,0,0,4.691-.366,64.991,64.991,0,0,0,37.932-19.4c3.536-3.662,6.967-7.425,10.475-11.173,1.673,1.464,1.755,3.216,2.312,4.722,3.655,9.891,12.02,15.662,21.6,15.662a25.851,25.851,0,0,0,8.213-1.378,50,50,0,0,0,21.311-14.388c11.987-13.366,20.6-28.985,26.454-45.889,3.2-9.236,1.9-18.8-2.368-27.714-4.475-9.348-11.845-14.21-21.336-14.21a31.261,31.261,0,0,0-5.234.459,45.113,45.113,0,0,0-24.6,12.4c-12.656,12.457-21.289,27.149-23.985,44.979-.569,3.764-1.242,7.466-3.158,10.94-7.01,12.71-18.189,19.573-31.828,22.883a23.412,23.412,0,0,1-5.525.682c-9.051,0-16.347-5.749-19.042-15.311a31.018,31.018,0,0,1-1.021-10.878A152.77,152.77,0,0,1,493.666,104.4c7.513-12.214,16.053-23.686,27.942-32.24,5.987-4.307,12.385-7.094,19.823-7.215l.267,0c4.526,0,7.478,1.911,7.987,6.238,1.2,10.226-.841,19.556-9.128,26.628a14.629,14.629,0,0,1-9.278,3.364,9.992,9.992,0,0,1-8.255-3.772c-.2-.269-.881-.179-1.323-.253-2.184,6.987,6.457,19.178,14.081,19.639Q536.928,116.858,538.059,116.858Zm15.872,56.7c.857-15.93,8.341-29.137,17.259-41.718,2.1-2.961,4.208-6.008,7.466-7.92a6.645,6.645,0,0,1,3.267-1.115c1.449,0,2.739.862,4.147,2.837,4.475,6.28,5.7,12.911,4.485,20.346-2.012,13.314-7.776,25.2-14.951,36.421-2.687,4.2-7.466,5.947-12.136,7.318a5.177,5.177,0,0,1-1.461.221c-1.85,0-3.333-1.117-4.559-2.725C554.349,183.158,553.665,178.485,553.931,173.558Z"/><path class="cls-1" d="M189.29,380.37a74.835,74.835,0,0,1-25.437-4.644,49.58,49.58,0,0,1-31.512-34.714A50.279,50.279,0,0,1,140.992,299q-.466,0-.933,0c-2.429,0-4.5-.082-6.5-.258-13.349-1.166-23.6-6.677-30.077-16.067l-.252.636c-.884,2.238-1.716,4.345-2.207,6.018-2.3,7.84-8,18.612-22.085,25.409a60.03,60.03,0,0,1-24.989,6.166c-.3,0-.587.008-.873.008-13.154,0-24.512-5.917-31.163-16.233-6.677-10.359-7.363-23.231-1.884-35.314a36.588,36.588,0,0,1,7.05-10.6c11.27-11.6,17.39-28.078,23.869-45.524l.042-.114c1.023-2.754,2.08-5.6,3.159-8.431q.558-1.458,1.1-2.919c-12.714-3.679-23.19-12.184-28.48-23.307a63.335,63.335,0,0,1-5.121-40.057c2.652-13.077,9.568-25.474,20-35.853a86.668,86.668,0,0,1,59.831-24.776,77.513,77.513,0,0,1,34.273,7.882c8.712,4.249,15.118,10.2,19.133,17.74,1.095-2.646,2.2-5.275,3.3-7.868a38.406,38.406,0,0,1,19.5-20.162,95.112,95.112,0,0,1,25.381-7.667,40.047,40.047,0,0,1,6.109-.482c14.626,0,26.688,8.533,31.487,22.268a25.375,25.375,0,0,1,.458,15.369,25.85,25.85,0,0,1-10.475,15.039,20.618,20.618,0,0,0-6.23,7.1,30.423,30.423,0,0,1,4.71,1.372,25.717,25.717,0,0,1,20.479-7.819c.8-.145,2.494-.567,3.364-.783a70.2,70.2,0,0,1,14.787-2.434q1.212-3.348,2.442-6.695c3.057-8.32,6.058-16.883,8.959-25.164l2.849-8.121c4.447-12.95,13.215-17.888,19.787-19.751a41.316,41.316,0,0,0,5.321-2.514,93.733,93.733,0,0,1,10.239-4.787,33.493,33.493,0,0,1,12.169-2.49A27.085,27.085,0,0,1,353.941,63.01a34.274,34.274,0,0,1,3.174,11.482c1.338,11.043-1.713,19.706-3.941,26.032q-1.026,2.916-2.04,5.783c2.674-.036,5.437.012,8.636.146a29.459,29.459,0,0,1,10.713,2.453c1.533-.93,3.1-1.839,4.69-2.712,11.1-6.105,22.645-8.477,34.2-7a45.27,45.27,0,0,1,23.576,10.01,175.993,175.993,0,0,1,32.355-46.759c15.933-16.678,34.939-27.681,56.487-32.7a71.9,71.9,0,0,1,34.4.118A53.074,53.074,0,0,1,590.627,57.9a54.579,54.579,0,0,1,5.549,25.295,46.444,46.444,0,0,1,12.751,4.632c5.492-14.671,11.132-28.683,15.533-39.493,7.307-17.94,27.032-30.961,46.9-30.961.387,0,.768.005,1.149.015a31.117,31.117,0,0,1,25.76,14.425c5.622,8.983,6.2,20.461,1.536,30.7-.846,1.858-1.679,3.774-2.513,5.778A55.805,55.805,0,0,1,722.65,72.04c1.34-.173,2.76-.344,4.3-.52a49.45,49.45,0,0,1,5.676-.348c14.016,0,21.526,7.426,24.755,11.853,5.895,8.077,7.037,17.934,3.4,29.3-1.608,5.016-3.337,10.324-5.516,16.919q.366.213.728.433a28.589,28.589,0,0,1,13.233,18.19c1.231,5.472,1.421,13.939-4.656,23.2q-1.151,1.752-2.289,3.512l-.151.231c-5.272,8.121-10.723,16.519-18.155,24.592a51.417,51.417,0,0,1-6.722,6l-.179.138a62.028,62.028,0,0,1-8.755,5.732c-3.311,11.125-11.744,16.535-14.6,18.367l-.382.245c-15.547,10.237-32.3,14.741-48.131,18.479-29.539,6.973-59.47,11.636-88.414,16.145-12.343,1.924-25.073,3.907-37.468,6.026-34.155,5.837-72.858,12.451-109.819,20.31-37.432,7.959-69.71,16.4-98.68,25.819-19.1,6.206-41.532,13.972-63.1,24.515a164.246,164.246,0,0,0-34.244,22.417C220.567,374.568,205.288,380.37,189.29,380.37Zm-40.122-88.937a3.5,3.5,0,0,1,2.489,5.96q-1.043,1.055-2.058,2.162a43.5,43.5,0,0,0-10.46,39.785,42.588,42.588,0,0,0,27.092,29.8,67.867,67.867,0,0,0,23.059,4.228c14.314,0,28.025-5.226,39.651-15.114a171.25,171.25,0,0,1,35.706-23.374c21.957-10.733,44.68-18.6,64.011-24.885,29.2-9.489,61.714-18,99.388-26.007,37.1-7.888,75.874-14.515,110.086-20.362,12.454-2.128,25.21-4.116,37.546-6.038,28.845-4.494,58.639-9.136,87.914-16.047,15.219-3.593,31.3-7.905,45.895-17.514l.45-.29c2.656-1.7,9.716-6.232,12-15.7a3.5,3.5,0,0,1,1.848-2.314,53.673,53.673,0,0,0,9-5.728l.18-.139a45.252,45.252,0,0,0,5.855-5.2c7.032-7.64,12.321-15.787,17.435-23.665l.151-.231q1.15-1.773,2.308-3.541c4.732-7.206,4.612-13.668,3.678-17.819a21.646,21.646,0,0,0-10.049-13.749,29.7,29.7,0,0,0-2.824-1.522,3.5,3.5,0,0,1-1.835-4.268c2.622-7.916,4.6-13.985,6.427-19.674,2.92-9.115,2.118-16.866-2.385-23.036-2.446-3.354-8.181-8.979-19.1-8.979a42.668,42.668,0,0,0-4.881.3c-1.847.211-3.517.415-5.081.624a3.5,3.5,0,0,1-1.783-.229A48.452,48.452,0,0,0,692.5,76.064a3.5,3.5,0,0,1-3.979-4.689c1.65-4.27,3.259-8.118,4.918-11.763,3.685-8.1,3.273-17.1-1.1-24.091a24.135,24.135,0,0,0-20-11.14c-.32-.008-.643-.013-.971-.013-17.143,0-34.141,11.188-40.419,26.6-4.776,11.728-11.015,27.243-16.924,43.24a3.5,3.5,0,0,1-5.231,1.7,39.643,39.643,0,0,0-16.747-6.329,3.5,3.5,0,0,1-3.006-3.748,47.682,47.682,0,0,0-4.691-24.847,46.075,46.075,0,0,0-29.893-24.346,64.884,64.884,0,0,0-31.068-.081c-20.2,4.709-38.039,15.046-53.016,30.723a167.814,167.814,0,0,0-33.033,49.229,3.5,3.5,0,0,1-5.766,1,37.6,37.6,0,0,0-23.078-11.376c-10.073-1.28-20.152.806-29.942,6.193-2.045,1.126-4.064,2.314-6,3.53a3.5,3.5,0,0,1-3.5.128,22.23,22.23,0,0,0-9.57-2.536c-2.431-.1-4.606-.153-6.652-.153-2.252,0-4.437.064-6.493.19a3.5,3.5,0,0,1-3.513-4.663c1.245-3.511,2.492-7.034,3.724-10.535,2.029-5.762,4.766-13.534,3.625-22.953a27.777,27.777,0,0,0-2.5-9.22,20.129,20.129,0,0,0-18.145-11.289,26.869,26.869,0,0,0-9.67,2.029,88.134,88.134,0,0,0-9.469,4.437,40.852,40.852,0,0,1-6.681,3.06c-4.966,1.407-11.612,5.2-15.077,15.294L285.763,87.8c-2.909,8.306-5.919,16.895-8.994,25.263q-1.643,4.466-3.25,8.933a3.481,3.481,0,0,1-3.35,2.314l-.484,0a60.415,60.415,0,0,0-14.971,2.251,43.8,43.8,0,0,1-4.626,1.006,3.649,3.649,0,0,1-.724,0c-.594-.059-1.2-.088-1.8-.088a18.6,18.6,0,0,0-14.686,7.264,3.5,3.5,0,0,1-4.324,1.016,23.836,23.836,0,0,0-9.624-2.387,3.5,3.5,0,0,1-3.058-4.916c3.045-6.866,6.38-11.284,10.815-14.326a19,19,0,0,0,7.68-11.1,18.48,18.48,0,0,0-.313-11.224,25.684,25.684,0,0,0-24.872-17.577,33.1,33.1,0,0,0-5.041.4,88.069,88.069,0,0,0-23.515,7.1,31.506,31.506,0,0,0-16,16.544c-2.2,5.178-4.4,10.5-6.55,15.83a3.5,3.5,0,0,1-6.625-.4c-2.6-9.625-8.914-16.942-18.768-21.749a70.565,70.565,0,0,0-31.2-7.173,79.52,79.52,0,0,0-54.895,22.739c-9.449,9.4-15.7,20.563-18.076,32.281a56.393,56.393,0,0,0,4.581,35.66c4.888,10.276,15.167,17.912,27.5,20.423a3.5,3.5,0,0,1,2.589,4.63q-1.222,3.347-2.488,6.674c-1.071,2.811-2.122,5.638-3.138,8.374l-.042.114C50.764,233.838,44.4,250.988,32.1,263.646a29.736,29.736,0,0,0-5.7,8.612c-4.477,9.874-3.97,20.31,1.393,28.63,5.336,8.278,14.55,13.026,25.279,13.026.244,0,.491,0,.739-.007a53.066,53.066,0,0,0,22.08-5.472c11.769-5.68,16.508-14.6,18.412-21.076.58-1.977,1.468-4.227,2.409-6.61.9-2.274,1.914-4.842,2.818-7.588a3.5,3.5,0,0,1,6.549-.267c4.78,11.315,14.23,17.667,28.086,18.878,1.8.157,3.673.23,5.893.23,1.153,0,2.309-.02,3.461-.041l.1,0a31.827,31.827,0,0,0,4.938-.472A3.426,3.426,0,0,1,149.168,291.433Zm498.611-108.56h0ZM741.1,154.585h0ZM520.274,99.708l.009.012Zm2.036-5.8.036.006Z"/></svg>