<svg xmlns="http://www.w3.org/2000/svg" viewBox="0 0 500 500"><defs><style>.cls-1{fill:#fff;}.cls-2{fill:none;stroke:#fff;stroke-miterlimit:10;stroke-width:4px;fill-rule:evenodd;}</style></defs><g id="Layer_1" data-name="Layer 1"><path class="cls-1" d="M179.57,157c.31,1,.65,2,1,3a113.44,113.44,0,0,1,138.84,0c.36-1,.7-2,1-3a116.42,116.42,0,0,0-140.86,0Z"/><path class="cls-1" d="M320.27,343.08c-.32-1-.66-2-1-3a113.44,113.44,0,0,1-138.5,0c-.36,1-.7,2-1,3a116.42,116.42,0,0,0,140.54,0Z"/><path class="cls-1" d="M136.39,178a28.6,28.6,0,0,0,2.36,1.88,132.48,132.48,0,0,1,41.15-41.15,28.6,28.6,0,0,0-1.88-2.36A135.55,135.55,0,0,0,136.39,178Z"/><path class="cls-1" d="M220.54,118.72a29.78,29.78,0,0,0,.3,3,131.65,131.65,0,0,1,58.32,0,29.78,29.78,0,0,0,.3-3,134.74,134.74,0,0,0-58.92,0Z"/><path class="cls-1" d="M118.73,279.47a30,30,0,0,0,3-.25,131.79,131.79,0,0,1,0-58.44,30,30,0,0,0-3-.25,134.43,134.43,0,0,0,0,58.94Z"/><path class="cls-1" d="M320.1,138.75a132.48,132.48,0,0,1,41.15,41.15,28.6,28.6,0,0,0,2.36-1.88A135.55,135.55,0,0,0,322,136.39,28.6,28.6,0,0,0,320.1,138.75Z"/><path class="cls-1" d="M363.61,322a28.6,28.6,0,0,0-2.36-1.88,132.48,132.48,0,0,1-41.15,41.15,28.6,28.6,0,0,0,1.88,2.36A135.55,135.55,0,0,0,363.61,322Z"/><path class="cls-1" d="M381.28,220.56a29.91,29.91,0,0,0-3,.33,131.6,131.6,0,0,1,0,58.22,29.91,29.91,0,0,0,3,.33,134.56,134.56,0,0,0,0-58.88Z"/><path class="cls-1" d="M279.42,381.29a29.41,29.41,0,0,0-.36-3,131.94,131.94,0,0,1-58.12,0,29.41,29.41,0,0,0-.36,3,134.78,134.78,0,0,0,58.84,0Z"/><path class="cls-1" d="M179.9,361.25a132.48,132.48,0,0,1-41.15-41.15,28.6,28.6,0,0,0-2.36,1.88A135.55,135.55,0,0,0,178,363.61,28.6,28.6,0,0,0,179.9,361.25Z"/><path class="cls-1" d="M399.29,263.33a148.59,148.59,0,0,1-4.43,25.22,12.64,12.64,0,0,0,2,.42,151.79,151.79,0,0,0,4.46-25.39A13,13,0,0,0,399.29,263.33Z"/><path class="cls-1" d="M186.9,114.06a148.43,148.43,0,0,1,24-8.78,12.12,12.12,0,0,0-.6-1.91,151.13,151.13,0,0,0-24.22,8.84A12,12,0,0,0,186.9,114.06Z"/><path class="cls-1" d="M114.27,186.43a150.27,150.27,0,0,1,12.84-22.15,11.79,11.79,0,0,0-1.68-1.09A151.9,151.9,0,0,0,112.5,185.5,13.58,13.58,0,0,0,114.27,186.43Z"/><path class="cls-1" d="M100.71,236.67a148.59,148.59,0,0,1,4.43-25.22,12.64,12.64,0,0,0-2-.42,150.78,150.78,0,0,0-4.46,25.39A13,13,0,0,0,100.71,236.67Z"/><path class="cls-1" d="M237.13,98.66c0,.24,0,.49,0,.74,0,.43,0,.85.07,1.26q6.34-.54,12.84-.55t12.84.55c0-.41.07-.83.07-1.26,0-.25,0-.5,0-.74q-6.37-.54-12.87-.55T237.13,98.66Z"/><path class="cls-1" d="M372.89,164.28a150.27,150.27,0,0,1,12.84,22.15,13.58,13.58,0,0,0,1.77-.93,151.07,151.07,0,0,0-12.94-22.31A12.28,12.28,0,0,0,372.89,164.28Z"/><path class="cls-1" d="M396.82,211a12.64,12.64,0,0,0-2,.42,148.59,148.59,0,0,1,4.43,25.22,13,13,0,0,0,2-.25A151.79,151.79,0,0,0,396.82,211Z"/><path class="cls-1" d="M289.05,105.28a148.43,148.43,0,0,1,24.05,8.78,12,12,0,0,0,.77-1.85,151.13,151.13,0,0,0-24.22-8.84A12.12,12.12,0,0,0,289.05,105.28Z"/><path class="cls-1" d="M336.16,127.41a151.9,151.9,0,0,1,19.59,16.46,13.43,13.43,0,0,0,1.36-1.46,152.1,152.1,0,0,0-19.74-16.59A13.33,13.33,0,0,0,336.16,127.41Z"/><path class="cls-1" d="M144.25,143.87a151.9,151.9,0,0,1,19.59-16.46,13.33,13.33,0,0,0-1.21-1.59,152.1,152.1,0,0,0-19.74,16.59A13.43,13.43,0,0,0,144.25,143.87Z"/><path class="cls-1" d="M105.14,288.55a148.59,148.59,0,0,1-4.43-25.22,13,13,0,0,0-2,.25A150.78,150.78,0,0,0,103.18,289,12.64,12.64,0,0,0,105.14,288.55Z"/><path class="cls-1" d="M355.75,356.13a151.9,151.9,0,0,1-19.59,16.46,13.33,13.33,0,0,0,1.21,1.59,152.1,152.1,0,0,0,19.74-16.59A13.43,13.43,0,0,0,355.75,356.13Z"/><path class="cls-1" d="M385.73,313.57a150.27,150.27,0,0,1-12.84,22.15,12.28,12.28,0,0,0,1.67,1.09A151.07,151.07,0,0,0,387.5,314.5,13.58,13.58,0,0,0,385.73,313.57Z"/><path class="cls-1" d="M262.9,401.34s0-.08,0-.12a13,13,0,0,0-.16-1.88q-6.3.54-12.75.55t-12.75-.55a13,13,0,0,0-.16,1.88s0,.08,0,.12q6.38.54,12.9.55T262.9,401.34Z"/><path class="cls-1" d="M313.1,385.94a148.43,148.43,0,0,1-24.05,8.78,12.12,12.12,0,0,0,.6,1.91,151.13,151.13,0,0,0,24.22-8.84A13.1,13.1,0,0,0,313.1,385.94Z"/><path class="cls-1" d="M211,394.72a148.43,148.43,0,0,1-24-8.78,13.1,13.1,0,0,0-.77,1.85,151.13,151.13,0,0,0,24.22,8.84A12.12,12.12,0,0,0,211,394.72Z"/><path class="cls-1" d="M127.11,335.72a150.27,150.27,0,0,1-12.84-22.15,13.58,13.58,0,0,0-1.77.93,151.07,151.07,0,0,0,12.94,22.31A12.28,12.28,0,0,0,127.11,335.72Z"/><path class="cls-1" d="M163.84,372.59a151.9,151.9,0,0,1-19.59-16.46,13.43,13.43,0,0,0-1.36,1.46,152.1,152.1,0,0,0,19.74,16.59A13.33,13.33,0,0,0,163.84,372.59Z"/><path class="cls-1" d="M110.57,76.18,111,77.3A221.34,221.34,0,0,1,389,77.3l.39-1.12a222.87,222.87,0,0,0-278.86,0Z"/><path class="cls-1" d="M389.35,423.88l-.39-1.12a221.33,221.33,0,0,1-277.92,0l-.39,1.12a222.86,222.86,0,0,0,278.7,0Z"/><path class="cls-1" d="M179.15,98c4.38-2,8.86-3.93,13.44-5.6a7.13,7.13,0,0,0-.73-1.86c-4.6,1.68-9.11,3.57-13.52,5.63A7.91,7.91,0,0,0,179.15,98Z"/><path class="cls-1" d="M307.41,92.37C312,94,316.47,95.92,320.85,98a7.91,7.91,0,0,0,.81-1.83c-4.41-2.06-8.92-4-13.52-5.63A7.13,7.13,0,0,0,307.41,92.37Z"/><path class="cls-1" d="M275.56,84.19c4.83.75,9.59,1.71,14.27,2.85a7.47,7.47,0,0,0,.44-2c-4.72-1.15-9.51-2.12-14.36-2.87A7.21,7.21,0,0,0,275.56,84.19Z"/><path class="cls-1" d="M242.72,80.42a6.86,6.86,0,0,0-.1,1.12,8.48,8.48,0,0,0,.06.88q3.65-.17,7.32-.17t7.32.17a8.48,8.48,0,0,0,.06-.88,6.86,6.86,0,0,0-.1-1.12c-2.42-.11-4.84-.17-7.28-.17S245.14,80.31,242.72,80.42Z"/><path class="cls-1" d="M106.65,163q3.78-6.22,8.1-12.07a7.58,7.58,0,0,0-1.63-1.17q-4.34,5.91-8.17,12.18A7.59,7.59,0,0,0,106.65,163Z"/><path class="cls-1" d="M125,135.33a7.26,7.26,0,0,0,1.46,1.36q4.9-5.35,10.27-10.27a7.26,7.26,0,0,0-1.36-1.46Q129.92,129.91,125,135.33Z"/><path class="cls-1" d="M92.37,192.59C94,188,95.92,183.53,98,179.15a7.91,7.91,0,0,0-1.83-.81c-2.06,4.41-4,8.92-5.63,13.52A7.13,7.13,0,0,0,92.37,192.59Z"/><path class="cls-1" d="M150.89,114.75q5.85-4.31,12.07-8.1a7.59,7.59,0,0,0-1.06-1.7q-6.27,3.83-12.18,8.17A7.58,7.58,0,0,0,150.89,114.75Z"/><path class="cls-1" d="M337,106.65q6.22,3.78,12.07,8.1a7.58,7.58,0,0,0,1.17-1.63q-5.91-4.34-12.18-8.17A7.59,7.59,0,0,0,337,106.65Z"/><path class="cls-1" d="M414.91,209.73a7.47,7.47,0,0,0-2,.44c1.14,4.68,2.1,9.44,2.85,14.27a7.21,7.21,0,0,0,2-.35C417,219.24,416.06,214.45,414.91,209.73Z"/><path class="cls-1" d="M417.58,242.73q.17,3.61.17,7.27t-.17,7.27a7.49,7.49,0,0,0,1.17.1,7.56,7.56,0,0,0,.83,0q.17-3.64.17-7.33t-.17-7.33a6.53,6.53,0,0,0-2,.06Z"/><path class="cls-1" d="M82.43,257.6c-.11-2.52-.18-5.05-.18-7.6,0-2.33.06-4.64.15-6.94a7.23,7.23,0,0,0-1.15-.1,7.58,7.58,0,0,0-.84,0c-.1,2.32-.16,4.65-.16,7,0,2.57.07,5.12.18,7.66a7.37,7.37,0,0,0,.82,0A6.64,6.64,0,0,0,82.43,257.6Z"/><path class="cls-1" d="M364.67,125a7.26,7.26,0,0,0-1.36,1.46q5.35,4.9,10.27,10.27a7.26,7.26,0,0,0,1.46-1.36Q370.09,129.92,364.67,125Z"/><path class="cls-1" d="M402,179.15c2.05,4.38,3.93,8.86,5.6,13.44a7.13,7.13,0,0,0,1.86-.73c-1.68-4.6-3.57-9.11-5.63-13.52A7.91,7.91,0,0,0,402,179.15Z"/><path class="cls-1" d="M385.25,150.89q4.31,5.85,8.1,12.07a7.59,7.59,0,0,0,1.7-1.06q-3.82-6.27-8.17-12.18A7.58,7.58,0,0,0,385.25,150.89Z"/><path class="cls-1" d="M210.17,87c4.68-1.14,9.44-2.1,14.27-2.85a7.21,7.21,0,0,0-.35-2c-4.85.75-9.64,1.72-14.36,2.87A7.47,7.47,0,0,0,210.17,87Z"/><path class="cls-1" d="M320.85,402c-4.38,2.05-8.86,3.93-13.44,5.6a7.13,7.13,0,0,0,.73,1.86c4.6-1.68,9.11-3.57,13.52-5.63A7.91,7.91,0,0,0,320.85,402Z"/><path class="cls-1" d="M349.11,385.25q-5.85,4.31-12.07,8.1a7.59,7.59,0,0,0,1.06,1.7q6.27-3.82,12.18-8.17A7.58,7.58,0,0,0,349.11,385.25Z"/><path class="cls-1" d="M289.83,413c-4.68,1.14-9.44,2.1-14.27,2.85a7.21,7.21,0,0,0,.35,2c4.85-.75,9.64-1.72,14.36-2.87A7.47,7.47,0,0,0,289.83,413Z"/><path class="cls-1" d="M257.35,419.58c0-.16,0-.33,0-.5a7.49,7.49,0,0,0-.16-1.5q-3.59.17-7.22.17t-7.22-.17a7.49,7.49,0,0,0-.16,1.5c0,.17,0,.34,0,.5q3.66.17,7.35.17T257.35,419.58Z"/><path class="cls-1" d="M375,364.67a7.26,7.26,0,0,0-1.46-1.36q-4.9,5.35-10.27,10.27a7.26,7.26,0,0,0,1.36,1.46Q370.08,370.09,375,364.67Z"/><path class="cls-1" d="M84.19,224.44c.75-4.83,1.71-9.59,2.85-14.27a7.47,7.47,0,0,0-2-.44c-1.15,4.72-2.12,9.51-2.87,14.36A7.21,7.21,0,0,0,84.19,224.44Z"/><path class="cls-1" d="M415.81,275.56c-.75,4.83-1.71,9.59-2.85,14.27a7.47,7.47,0,0,0,2,.44c1.15-4.72,2.12-9.51,2.87-14.36A7.21,7.21,0,0,0,415.81,275.56Z"/><path class="cls-1" d="M407.63,307.41c-1.67,4.58-3.55,9.06-5.6,13.44a7.91,7.91,0,0,0,1.83.81c2.06-4.41,3.95-8.92,5.63-13.52A7.13,7.13,0,0,0,407.63,307.41Z"/><path class="cls-1" d="M393.35,337q-3.78,6.22-8.1,12.07a7.58,7.58,0,0,0,1.63,1.17q4.33-5.91,8.17-12.18A7.59,7.59,0,0,0,393.35,337Z"/><path class="cls-1" d="M98,320.85c-2-4.38-3.93-8.86-5.6-13.44a7.13,7.13,0,0,0-1.86.73c1.68,4.6,3.57,9.11,5.63,13.52A7.91,7.91,0,0,0,98,320.85Z"/><path class="cls-1" d="M114.75,349.11q-4.31-5.85-8.1-12.07a7.59,7.59,0,0,0-1.7,1.06q3.83,6.27,8.17,12.18A7.58,7.58,0,0,0,114.75,349.11Z"/><path class="cls-1" d="M87,289.83c-1.14-4.68-2.1-9.44-2.85-14.27a7.21,7.21,0,0,0-2,.35c.75,4.85,1.72,9.64,2.87,14.36A7.47,7.47,0,0,0,87,289.83Z"/><path class="cls-1" d="M224.44,415.81c-4.83-.75-9.59-1.71-14.27-2.85a7.47,7.47,0,0,0-.44,2c4.72,1.15,9.51,2.12,14.36,2.87A7.21,7.21,0,0,0,224.44,415.81Z"/><path class="cls-1" d="M135.33,375a7.26,7.26,0,0,0,1.36-1.46q-5.35-4.9-10.27-10.27a7.26,7.26,0,0,0-1.46,1.36Q129.91,370.08,135.33,375Z"/><path class="cls-1" d="M192.59,407.63c-4.58-1.67-9.06-3.55-13.44-5.6a7.91,7.91,0,0,0-.81,1.83c4.41,2.06,8.92,3.95,13.52,5.63A7.13,7.13,0,0,0,192.59,407.63Z"/><path class="cls-1" d="M163,393.35q-6.22-3.78-12.07-8.1a7.58,7.58,0,0,0-1.17,1.63q5.91,4.33,12.18,8.17A7.59,7.59,0,0,0,163,393.35Z"/><path class="cls-1" d="M134.12,104.49a185.63,185.63,0,0,1,22.74-15.56c-.17-.29-.34-.58-.52-.86a188.11,188.11,0,0,0-22.82,15.62C133.71,104,133.91,104.23,134.12,104.49Z"/><path class="cls-1" d="M182.12,76.71a184.41,184.41,0,0,1,26.34-8.14c-.08-.33-.15-.65-.25-1a185.67,185.67,0,0,0-26.43,8.17C181.88,76.09,182,76.4,182.12,76.71Z"/><path class="cls-1" d="M95.55,144.51c.26.2.53.41.8.59a187.83,187.83,0,0,1,17.21-21.52c-.25-.23-.49-.46-.75-.67A189.32,189.32,0,0,0,95.55,144.51Z"/><path class="cls-1" d="M72.18,195a184.31,184.31,0,0,1,10.1-25.66c-.3-.14-.6-.28-.92-.4a185.91,185.91,0,0,0-10.12,25.72C71.55,194.81,71.86,194.93,72.18,195Z"/><path class="cls-1" d="M418.64,169c-.32.12-.62.26-.92.4A184.31,184.31,0,0,1,427.82,195c.32-.1.63-.22.94-.34A185.91,185.91,0,0,0,418.64,169Z"/><path class="cls-1" d="M386.44,123.58a187.83,187.83,0,0,1,17.21,21.52c.27-.18.54-.39.8-.59a189.32,189.32,0,0,0-17.26-21.6C386.93,123.12,386.69,123.35,386.44,123.58Z"/><path class="cls-1" d="M236.19,63.4a2.83,2.83,0,0,0,0,.29c0,.24,0,.48,0,.71,4.55-.33,9.15-.51,13.79-.51s9.24.18,13.79.51c0-.23,0-.47,0-.71a2.83,2.83,0,0,0,0-.29c-4.56-.33-9.16-.51-13.81-.51S240.75,63.07,236.19,63.4Z"/><path class="cls-1" d="M63.89,249.88a187.34,187.34,0,0,1,2-27.49c-.32,0-.65-.09-1-.11a186.79,186.79,0,0,0-2.05,27.55C63.23,249.86,63.56,249.88,63.89,249.88Z"/><path class="cls-1" d="M291.54,68.57a184.41,184.41,0,0,1,26.34,8.14c.12-.31.24-.62.34-.94a185.67,185.67,0,0,0-26.43-8.17C291.69,67.92,291.62,68.24,291.54,68.57Z"/><path class="cls-1" d="M343.14,88.93a185.63,185.63,0,0,1,22.74,15.56c.21-.26.41-.53.6-.8a188.11,188.11,0,0,0-22.82-15.62C343.48,88.35,343.31,88.64,343.14,88.93Z"/><path class="cls-1" d="M291.29,431.48a185.11,185.11,0,0,1-27.25,4.1c0,.34.06.67.11,1a184.72,184.72,0,0,0,27.32-4.1C291.42,432.14,291.37,431.81,291.29,431.48Z"/><path class="cls-1" d="M342.92,411.2a184.21,184.21,0,0,1-24.81,12c.12.31.26.62.41.92a187.55,187.55,0,0,0,24.87-12C343.24,411.79,343.09,411.49,342.92,411.2Z"/><path class="cls-1" d="M417.61,330.86a186.79,186.79,0,0,1-13.83,23.84c.28.19.56.36.85.53a187.82,187.82,0,0,0,13.86-23.91C418.2,331.16,417.91,331,417.61,330.86Z"/><path class="cls-1" d="M387,377.32a9.49,9.49,0,0,0-.72-.7,188.4,188.4,0,0,1-20.18,18.74c.21.26.43.51.65.75A189.5,189.5,0,0,0,387,377.32Z"/><path class="cls-1" d="M434,277.87a185.65,185.65,0,0,1-6.13,26.88c.31.1.64.17,1,.25A185.3,185.3,0,0,0,435,278.05C434.68,278,434.35,277.92,434,277.87Z"/><path class="cls-1" d="M434.06,222.39a187.34,187.34,0,0,1,2.05,27.49c.33,0,.66,0,1,0a188.16,188.16,0,0,0-2.06-27.55C434.72,222.3,434.39,222.34,434.06,222.39Z"/><path class="cls-1" d="M72.12,304.75A184.36,184.36,0,0,1,66,277.87c-.33.05-.66.11-1,.18A185.3,185.3,0,0,0,71.15,305Z"/><path class="cls-1" d="M133.27,396.11c.22-.24.44-.49.65-.75a187.48,187.48,0,0,1-20.18-18.75c-.25.23-.49.46-.72.71A189.5,189.5,0,0,0,133.27,396.11Z"/><path class="cls-1" d="M236,435.58a185.11,185.11,0,0,1-27.25-4.1c-.08.33-.13.66-.18,1a184.72,184.72,0,0,0,27.32,4.1C235.9,436.25,235.94,435.92,236,435.58Z"/><path class="cls-1" d="M96.22,354.7A185.54,185.54,0,0,1,82.4,330.86c-.31.14-.6.3-.89.46a187.82,187.82,0,0,0,13.86,23.91C95.66,355.06,95.94,354.89,96.22,354.7Z"/><path class="cls-1" d="M181.89,423.2a184.21,184.21,0,0,1-24.81-12c-.17.29-.32.59-.47.89a187.55,187.55,0,0,0,24.87,12C181.63,423.82,181.77,423.51,181.89,423.2Z"/><path class="cls-1" d="M351.43,71.94c-.2.27-.4.54-.59.82A205.46,205.46,0,0,1,407,119.93l.72-.7A206.59,206.59,0,0,0,351.43,71.94Z"/><path class="cls-1" d="M213.22,48.35c0,.33,0,.67.08,1a205.11,205.11,0,0,1,73.4,0c0-.33.06-.67.08-1a206,206,0,0,0-73.56,0Z"/><path class="cls-1" d="M46,250a202.79,202.79,0,0,1,12.74-71l-1-.27A204,204,0,0,0,45,250c0,.4,0,.79,0,1.19.33,0,.67.06,1,.08C46.05,250.85,46,250.42,46,250Z"/><path class="cls-1" d="M441.22,179A202.79,202.79,0,0,1,454,250c0,.42,0,.85,0,1.27.33,0,.67,0,1-.08,0-.4,0-.79,0-1.19a204,204,0,0,0-12.77-71.23Z"/><path class="cls-1" d="M215.84,451.09a202.47,202.47,0,0,1-68.91-25.15l-.42.91a203.61,203.61,0,0,0,69.07,25.21C215.67,451.74,215.76,451.41,215.84,451.09Z"/><path class="cls-1" d="M92.29,119.23l.72.7a205.46,205.46,0,0,1,56.15-47.17c-.19-.28-.39-.55-.59-.82A206.59,206.59,0,0,0,92.29,119.23Z"/><path class="cls-1" d="M443,319l-.91-.41A204.23,204.23,0,0,1,405.34,382l.82.58A205.1,205.1,0,0,0,443,319Z"/><path class="cls-1" d="M353.07,425.94a202.47,202.47,0,0,1-68.91,25.15c.08.32.17.65.26,1a203.61,203.61,0,0,0,69.07-25.21Z"/><path class="cls-1" d="M94.66,382A204.23,204.23,0,0,1,57.9,318.56L57,319A205.1,205.1,0,0,0,93.84,382.6Z"/></g><g id="Layer_4" data-name="Layer 4"><path class="cls-2" d="M273.12,332.25c36.22-10.37,51.56-38,55.8-49-14.35,10.58-30,21.12-37.75,10.79,0,0,7.22-47.23,10.38-66.56,4.26-26,32.08-41.34,32.08-41.34-13.95.2-31,2.36-51.08,16.49a61.43,61.43,0,0,0-5.23,4.15C270.84,199.87,261,200,261,200c4.72,3.7,8.54,12.85,7.41,19.71l-11.05,67.52s-12.93,8.1-21.65,6.67a12.45,12.45,0,0,1-9.24-6.75,13.54,13.54,0,0,1-1.22-3.21l13.65-83.41c-2.92,1.7-11.91,2-9.55-12.42,1.47-9,9.69-18.63,22.29-23.3a86,86,0,0,0-46,12.72,84.87,84.87,0,0,0-39.46,59.39s12.73-24.94,23.68-25.65a10.46,10.46,0,0,1,4.73.66,10.34,10.34,0,0,1,6.4,11.64l-10.12,61.8c-1,6.27-5.28,7-9,6.3a33,33,0,0,1-7.22-2.62,85.21,85.21,0,0,0,60.92,45l26.53-19.18Z"/></g></svg>